<?xml version="1.0" encoding="UTF-8" standalone="no"?>
<!-- Created with Inkscape (http://www.inkscape.org/) -->

<svg
   xmlns:dc="http://purl.org/dc/elements/1.1/"
   xmlns:cc="http://creativecommons.org/ns#"
   xmlns:rdf="http://www.w3.org/1999/02/22-rdf-syntax-ns#"
   xmlns:svg="http://www.w3.org/2000/svg"
   xmlns="http://www.w3.org/2000/svg"
   xmlns:sodipodi="http://sodipodi.sourceforge.net/DTD/sodipodi-0.dtd"
   xmlns:inkscape="http://www.inkscape.org/namespaces/inkscape"
   width="320"
   height="320"
   id="svg2"
   sodipodi:version="0.32"
   inkscape:version="0.91 r"
   version="1.0"
   sodipodi:docname="AtomDBlock.svg"
   inkscape:output_extension="org.inkscape.output.svg.inkscape"
   inkscape:export-filename="/home/aclark/CRK3/MMTk/images/msk/AtomElement.png"
   inkscape:export-xdpi="9"
   inkscape:export-ydpi="9">
  <defs
     id="defs4" />
  <sodipodi:namedview
     id="base"
     pagecolor="#ffffff"
     bordercolor="#666666"
     borderopacity="1.0"
     gridtolerance="10000"
     guidetolerance="10"
     objecttolerance="10"
     inkscape:pageopacity="0.0"
     inkscape:pageshadow="2"
     inkscape:zoom="1.4"
     inkscape:cx="206.12564"
     inkscape:cy="215.40039"
     inkscape:document-units="px"
     inkscape:current-layer="layer1"
     width="320px"
     height="320px"
     showborder="true"
     inkscape:window-width="814"
     inkscape:window-height="842"
     inkscape:window-x="458"
     inkscape:window-y="104"
     showgrid="true"
     inkscape:window-maximized="0" />
  <metadata
     id="metadata7">
    <rdf:RDF>
      <cc:Work
         rdf:about="">
        <dc:format>image/svg+xml</dc:format>
        <dc:type
           rdf:resource="http://purl.org/dc/dcmitype/StillImage" />
      </cc:Work>
    </rdf:RDF>
  </metadata>
  <g
     inkscape:label="Layer 1"
     inkscape:groupmode="layer"
     id="layer1">
    <path
       sodipodi:type="arc"
       style="fill:#000000;fill-opacity:0;stroke:#000000;stroke-width:10;stroke-linecap:round;stroke-linejoin:round;stroke-miterlimit:4;stroke-dasharray:none;stroke-dashoffset:8.13591309;stroke-opacity:1"
       id="path3960"
       sodipodi:cx="159.28572"
       sodipodi:cy="158.92857"
       sodipodi:rx="159.28572"
       sodipodi:ry="158.92857"
       d="M 318.57144 158.92857 A 159.28572 158.92857 0 1 1  0,158.92857 A 159.28572 158.92857 0 1 1  318.57144 158.92857 z"
       transform="matrix(0.9738456,0,0,0.9782812,4.8803045,5.5945903)" />
    <path
       style="fill:none;fill-rule:evenodd;stroke:#000000;stroke-width:10;stroke-linecap:butt;stroke-linejoin:miter;stroke-opacity:1;stroke-miterlimit:4;stroke-dasharray:none"
       d="M 160,0 L 160,320"
       id="path3962" />
    <path
       style="fill:none;fill-rule:evenodd;stroke:#000000;stroke-width:10;stroke-linecap:butt;stroke-linejoin:miter;stroke-opacity:1;stroke-miterlimit:4;stroke-dasharray:none"
       d="M 0,160 L 320,160"
       id="path3964" />
    <g
       style="font-size:80px"
       id="text3966">
      <path
         d="m 73.413235,217.96387 q 2.856445,0.96679 5.537109,4.13086 2.724609,3.16406 5.449219,8.70117 l 9.008789,17.92969 -9.536133,0 -8.393555,-16.83106 q -3.251953,-6.5918 -6.328125,-8.74512 -3.032226,-2.15332 -8.305664,-2.15332 l -9.667968,0 0,27.7295 -8.876954,0 0,-65.61036 20.039063,0 q 11.25,0 16.787109,4.70215 5.53711,4.70215 5.53711,14.19434 0,6.19629 -2.900391,10.2832 -2.856445,4.08692 -8.349609,5.66895 z m -22.236328,-27.55371 0,23.29101 11.162109,0 q 6.416016,0 9.667969,-2.94433 3.295898,-2.98829 3.295898,-8.74512 0,-5.75684 -3.295898,-8.65723 -3.251953,-2.94433 -9.667969,-2.94433 l -11.162109,0 z"
         style="font-size:90px"
         id="path6988" />
      <path
         d="m 99.648586,229.30176 0,-29.79492 8.085934,0 0,29.4873 q 0,6.98731 2.72461,10.50293 2.72461,3.47168 8.17383,3.47168 6.54785,0 10.32715,-4.1748 3.82324,-4.17481 3.82324,-11.38184 l 0,-27.90527 8.08594,0 0,49.21875 -8.08594,0 0,-7.5586 q -2.94433,4.48242 -6.85547,6.67969 Q 122.0607,250 116.91909,250 q -8.48144,0 -12.87597,-5.27344 -4.394534,-5.27344 -4.394534,-15.4248 z m 20.346684,-30.98145 0,0 z"
         style="font-size:90px"
         id="path6990" />
    </g>
    <g
       style="font-size:80px"
       id="text3970">
      <path
         d="m 48,73.115234 37.705078,0 0,7.470703 -28.828125,0 0,19.335938 26.015625,0 0,7.470705 -26.015625,0 0,31.33301 -8.876953,0 0,-65.610356 z"
         style="font-size:90px"
         id="path7003" />
      <path
         d="m 136.68164,112.09473 0,3.95507 -37.177734,0 q 0.527344,8.34961 5.009764,12.74415 4.52637,4.35058 12.56836,4.35058 4.6582,0 9.00879,-1.14258 4.39453,-1.14258 8.70117,-3.42773 l 0,7.64648 q -4.35058,1.84571 -8.9209,2.8125 -4.57031,0.9668 -9.27246,0.9668 -11.77734,0 -18.676755,-6.85547 -6.855469,-6.85547 -6.855469,-18.54492 0,-12.08496 6.503906,-19.160157 6.547848,-7.119141 17.622068,-7.119141 9.93164,0 15.68848,6.416016 5.80078,6.372072 5.80078,17.358402 z m -8.08594,-2.37305 q -0.0879,-6.63574 -3.73535,-10.590821 -3.60351,-3.955078 -9.58008,-3.955078 -6.76757,0 -10.85449,3.823242 -4.04297,3.823247 -4.658202,10.766607 l 28.828122,-0.0439 z"
         style="font-size:90px"
         id="path7005" />
    </g>
    <g
       style="font-size:80px"
       id="text3974">
      <path
         d="m 229.94531,77.053711 0,9.360351 q -4.48242,-4.174804 -9.58008,-6.240234 -5.05371,-2.06543 -10.7666,-2.06543 -11.25,0 -17.22656,6.899414 -5.97656,6.855469 -5.97656,19.863278 0,12.96387 5.97656,19.86329 5.97656,6.85546 17.22656,6.85546 5.71289,0 10.7666,-2.06543 5.09766,-2.06543 9.58008,-6.24023 l 0,9.27246 q -4.6582,3.16406 -9.88769,4.74609 -5.18555,1.58204 -10.98633,1.58204 -14.89746,0 -23.4668,-9.09668 -8.56933,-9.14063 -8.56933,-24.917 0,-15.820309 8.56933,-24.916988 8.56934,-9.140625 23.4668,-9.140625 5.88867,0 11.07422,1.582031 5.22949,1.538086 9.7998,4.658203 z"
         style="font-size:90px"
         id="path6998" />
      <path
         d="m 262.46484,94.060547 q -6.5039,0 -10.2832,5.097656 -3.7793,5.053707 -3.7793,13.886717 0,8.83301 3.73536,13.93067 3.77929,5.05371 10.32714,5.05371 6.45996,0 10.23926,-5.09766 3.7793,-5.09766 3.7793,-13.88672 0,-8.74512 -3.7793,-13.842772 -3.7793,-5.141601 -10.23926,-5.141601 z m 0,-6.855469 q 10.54688,0 16.56739,6.855469 6.0205,6.855473 6.0205,18.984373 0,12.08496 -6.0205,18.98438 -6.02051,6.85547 -16.56739,6.85547 -10.59082,0 -16.61132,-6.85547 -5.97657,-6.89942 -5.97657,-18.98438 0,-12.1289 5.97657,-18.984373 6.0205,-6.855469 16.61132,-6.855469 z"
         style="font-size:90px"
         id="path7000" />
    </g>
    <g
       style="font-size:80px"
       id="text3978">
      <path
         d="m 211.11328,219.23828 q 2.85645,0.9668 5.53711,4.13086 2.72461,3.16406 5.44922,8.70117 L 231.1084,250 l -9.53613,0 -8.39356,-16.83105 q -3.25195,-6.5918 -6.32812,-8.74512 -3.03223,-2.15332 -8.30567,-2.15332 l -9.66797,0 0,27.72949 -8.87695,0 0,-65.61035 20.03906,0 q 11.25,0 16.78711,4.70215 5.53711,4.70215 5.53711,14.19433 0,6.19629 -2.90039,10.28321 -2.85644,4.08691 -8.34961,5.66894 z m -22.23633,-27.55371 0,23.29102 11.16211,0 q 6.41602,0 9.66797,-2.94434 3.2959,-2.98828 3.2959,-8.74512 0,-5.75683 -3.2959,-8.65722 -3.25195,-2.94434 -9.66797,-2.94434 l -11.16211,0 z"
         style="font-size:90px"
         id="path6993" />
      <path
         d="m 283.13965,220.29297 0,29.70703 -8.08594,0 0,-29.44336 q 0,-6.9873 -2.72461,-10.45898 -2.72461,-3.47168 -8.17383,-3.47168 -6.54785,0 -10.32715,4.1748 -3.77929,4.17481 -3.77929,11.38184 l 0,27.81738 -8.12988,0 0,-68.37891 8.12988,0 0,26.80664 q 2.90039,-4.43847 6.81152,-6.63574 3.95508,-2.19726 9.09668,-2.19726 8.48145,0 12.83203,5.27343 4.35059,5.2295 4.35059,15.42481 z"
         style="font-size:90px"
         id="path6995" />
    </g>
  </g>
</svg>
