<?xml version="1.0" encoding="UTF-8" standalone="no"?>
<!-- Created with Inkscape (http://www.inkscape.org/) -->

<svg
   xmlns:dc="http://purl.org/dc/elements/1.1/"
   xmlns:cc="http://creativecommons.org/ns#"
   xmlns:rdf="http://www.w3.org/1999/02/22-rdf-syntax-ns#"
   xmlns:svg="http://www.w3.org/2000/svg"
   xmlns="http://www.w3.org/2000/svg"
   xmlns:sodipodi="http://sodipodi.sourceforge.net/DTD/sodipodi-0.dtd"
   xmlns:inkscape="http://www.inkscape.org/namespaces/inkscape"
   width="320"
   height="320"
   id="svg2"
   sodipodi:version="0.32"
   inkscape:version="0.91 r"
   version="1.0"
   sodipodi:docname="AtomNoble.svg"
   inkscape:output_extension="org.inkscape.output.svg.inkscape"
   inkscape:export-filename="/home/aclark/CRK3/MMTk/images/msk/AtomElement.png"
   inkscape:export-xdpi="9"
   inkscape:export-ydpi="9">
  <defs
     id="defs4" />
  <sodipodi:namedview
     id="base"
     pagecolor="#ffffff"
     bordercolor="#666666"
     borderopacity="1.0"
     gridtolerance="10000"
     guidetolerance="10"
     objecttolerance="10"
     inkscape:pageopacity="0.0"
     inkscape:pageshadow="2"
     inkscape:zoom="1.4"
     inkscape:cx="206.12564"
     inkscape:cy="215.40039"
     inkscape:document-units="px"
     inkscape:current-layer="layer1"
     width="320px"
     height="320px"
     showborder="true"
     inkscape:window-width="814"
     inkscape:window-height="842"
     inkscape:window-x="0"
     inkscape:window-y="104"
     showgrid="true"
     inkscape:window-maximized="0" />
  <metadata
     id="metadata7">
    <rdf:RDF>
      <cc:Work
         rdf:about="">
        <dc:format>image/svg+xml</dc:format>
        <dc:type
           rdf:resource="http://purl.org/dc/dcmitype/StillImage" />
      </cc:Work>
    </rdf:RDF>
  </metadata>
  <g
     inkscape:label="Layer 1"
     inkscape:groupmode="layer"
     id="layer1">
    <path
       sodipodi:type="arc"
       style="fill:#000000;fill-opacity:0;stroke:#000000;stroke-width:10;stroke-linecap:round;stroke-linejoin:round;stroke-miterlimit:4;stroke-dasharray:none;stroke-dashoffset:8.13591309;stroke-opacity:1"
       id="path3960"
       sodipodi:cx="159.28572"
       sodipodi:cy="158.92857"
       sodipodi:rx="159.28572"
       sodipodi:ry="158.92857"
       d="M 318.57144 158.92857 A 159.28572 158.92857 0 1 1  0,158.92857 A 159.28572 158.92857 0 1 1  318.57144 158.92857 z"
       transform="matrix(0.9738456,0,0,0.9782812,4.8803045,5.5945903)" />
    <path
       style="fill:none;fill-rule:evenodd;stroke:#000000;stroke-width:10;stroke-linecap:butt;stroke-linejoin:miter;stroke-opacity:1;stroke-miterlimit:4;stroke-dasharray:none"
       d="M 160,0 L 160,320"
       id="path3962" />
    <path
       style="fill:none;fill-rule:evenodd;stroke:#000000;stroke-width:10;stroke-linecap:butt;stroke-linejoin:miter;stroke-opacity:1;stroke-miterlimit:4;stroke-dasharray:none"
       d="M 0,160 L 320,160"
       id="path3964" />
    <g
       style="font-size:80px"
       id="text3966">
      <path
         d="m 71.928711,191.86035 -12.041016,32.65137 24.125977,0 -12.084961,-32.65137 z m -5.009766,-8.74512 10.063477,0 25.004878,65.61036 -9.228511,0 -5.976562,-16.83106 -29.575196,0 -5.976562,16.83106 -9.360352,0 25.048828,-65.61036 z"
         style="font-size:90px"
         id="path6950" />
      <path
         d="m 139.69238,207.06543 q -1.3623,-0.79102 -2.98828,-1.14258 -1.58203,-0.39551 -3.51562,-0.39551 -6.85547,0 -10.54688,4.48243 -3.64746,4.43847 -3.64746,12.78808 l 0,25.92774 -8.12988,0 0,-49.21875 8.12988,0 0,7.64648 q 2.54883,-4.48242 6.63574,-6.63574 4.08692,-2.19727 9.93164,-2.19727 0.83496,0 1.84571,0.13184 1.01074,0.0879 2.24121,0.30762 l 0.0439,8.30566 z"
         style="font-size:90px"
         id="path6952" />
    </g>
    <g
       style="font-size:80px"
       id="text3970">
      <path
         d="m 40,73.115234 8.876953,0 0,26.894536 32.255859,0 0,-26.894536 8.876954,0 0,65.610356 -8.876954,0 0,-31.24512 -32.255859,0 0,31.24512 -8.876953,0 0,-65.610356 z"
         style="font-size:90px"
         id="path6965" />
      <path
         d="m 149.42383,112.09473 0,3.95507 -37.17774,0 q 0.52735,8.34961 5.00977,12.74415 4.52637,4.35058 12.56836,4.35058 4.6582,0 9.00879,-1.14258 4.39453,-1.14258 8.70117,-3.42773 l 0,7.64648 q -4.35059,1.84571 -8.9209,2.8125 -4.57031,0.9668 -9.27246,0.9668 -11.77734,0 -18.67676,-6.85547 -6.85547,-6.85547 -6.85547,-18.54492 0,-12.08496 6.50391,-19.160157 6.54785,-7.119141 17.62207,-7.119141 9.93164,0 15.68848,6.416016 5.80078,6.372072 5.80078,17.358402 z m -8.08594,-2.37305 q -0.0879,-6.63574 -3.73535,-10.590821 -3.60352,-3.955078 -9.58008,-3.955078 -6.76758,0 -10.85449,3.823242 -4.04297,3.823247 -4.6582,10.766607 l 28.82812,-0.0439 z"
         style="font-size:90px"
         id="path6967" />
    </g>
    <g
       style="font-size:80px"
       id="text3974">
      <path
         d="m 184.81445,72 11.95313,0 29.09179,54.8877 0,-54.8877 8.61329,0 0,65.61035 -11.95313,0 -29.0918,-54.887694 0,54.887694 -8.61328,0 0,-65.61035 z"
         style="font-size:90px"
         id="path6960" />
      <path
         d="m 293.88672,110.97949 0,3.95508 -37.17774,0 q 0.52735,8.34961 5.00977,12.74414 4.52637,4.35059 12.56836,4.35059 4.6582,0 9.00879,-1.14258 4.39453,-1.14258 8.70117,-3.42774 l 0,7.64649 q -4.35059,1.8457 -8.9209,2.8125 -4.57031,0.9668 -9.27246,0.9668 -11.77734,0 -18.67676,-6.85547 -6.85547,-6.85547 -6.85547,-18.54492 0,-12.08497 6.50391,-19.160161 6.54785,-7.119141 17.62207,-7.119141 9.93164,0 15.68848,6.416016 5.80078,6.37207 5.80078,17.358396 z m -8.08594,-2.37304 q -0.0879,-6.63575 -3.73535,-10.590825 -3.60352,-3.955078 -9.58008,-3.955078 -6.76758,0 -10.85449,3.823242 -4.04297,3.823241 -4.6582,10.766601 l 28.82812,-0.0439 z"
         style="font-size:90px"
         id="path6962" />
    </g>
    <g
       style="font-size:80px"
       id="text3978">
      <path
         d="m 180,184.38965 8.87695,0 0,27.72949 29.44336,-27.72949 11.42578,0 -32.56347,30.58594 L 232.0752,250 l -11.68946,0 -31.50879,-31.59668 0,31.59668 -8.87695,0 0,-65.61035 z"
         style="font-size:90px"
         id="path6955" />
      <path
         d="m 267.23145,208.33984 q -1.36231,-0.79101 -2.98829,-1.14257 -1.58203,-0.39551 -3.51562,-0.39551 -6.85547,0 -10.54688,4.48242 -3.64746,4.43848 -3.64746,12.78809 l 0,25.92773 -8.12988,0 0,-49.21875 8.12988,0 0,7.64648 q 2.54883,-4.48242 6.63575,-6.63574 4.08691,-2.19726 9.93164,-2.19726 0.83496,0 1.8457,0.13183 1.01074,0.0879 2.24121,0.30762 l 0.0439,8.30566 z"
         style="font-size:90px"
         id="path6957" />
    </g>
  </g>
</svg>
