<?xml version="1.0" encoding="UTF-8" standalone="no"?>
<!-- Created with Inkscape (http://www.inkscape.org/) -->

<svg
   xmlns:dc="http://purl.org/dc/elements/1.1/"
   xmlns:cc="http://creativecommons.org/ns#"
   xmlns:rdf="http://www.w3.org/1999/02/22-rdf-syntax-ns#"
   xmlns:svg="http://www.w3.org/2000/svg"
   xmlns="http://www.w3.org/2000/svg"
   xmlns:sodipodi="http://sodipodi.sourceforge.net/DTD/sodipodi-0.dtd"
   xmlns:inkscape="http://www.inkscape.org/namespaces/inkscape"
   width="320"
   height="320"
   id="svg2"
   sodipodi:version="0.32"
   inkscape:version="0.91 r"
   version="1.0"
   sodipodi:docname="AtomSBlock.svg"
   inkscape:output_extension="org.inkscape.output.svg.inkscape"
   inkscape:export-filename="/home/aclark/CRK3/MMTk/images/msk/AtomElement.png"
   inkscape:export-xdpi="9"
   inkscape:export-ydpi="9">
  <defs
     id="defs4" />
  <sodipodi:namedview
     id="base"
     pagecolor="#ffffff"
     bordercolor="#666666"
     borderopacity="1.0"
     gridtolerance="10000"
     guidetolerance="10"
     objecttolerance="10"
     inkscape:pageopacity="0.0"
     inkscape:pageshadow="2"
     inkscape:zoom="1.4"
     inkscape:cx="98.625641"
     inkscape:cy="215.40039"
     inkscape:document-units="px"
     inkscape:current-layer="layer1"
     width="320px"
     height="320px"
     showborder="true"
     inkscape:window-width="1447"
     inkscape:window-height="842"
     inkscape:window-x="0"
     inkscape:window-y="104"
     showgrid="true"
     inkscape:window-maximized="0" />
  <metadata
     id="metadata7">
    <rdf:RDF>
      <cc:Work
         rdf:about="">
        <dc:format>image/svg+xml</dc:format>
        <dc:type
           rdf:resource="http://purl.org/dc/dcmitype/StillImage" />
      </cc:Work>
    </rdf:RDF>
  </metadata>
  <g
     inkscape:label="Layer 1"
     inkscape:groupmode="layer"
     id="layer1">
    <path
       sodipodi:type="arc"
       style="fill:#000000;fill-opacity:0;stroke:#000000;stroke-width:10;stroke-linecap:round;stroke-linejoin:round;stroke-miterlimit:4;stroke-dasharray:none;stroke-dashoffset:8.13591309;stroke-opacity:1"
       id="path3960"
       sodipodi:cx="159.28572"
       sodipodi:cy="158.92857"
       sodipodi:rx="159.28572"
       sodipodi:ry="158.92857"
       d="M 318.57144 158.92857 A 159.28572 158.92857 0 1 1  0,158.92857 A 159.28572 158.92857 0 1 1  318.57144 158.92857 z"
       transform="matrix(0.9738456,0,0,0.9782812,4.8803045,5.5945903)" />
    <path
       style="fill:none;fill-rule:evenodd;stroke:#000000;stroke-width:10;stroke-linecap:butt;stroke-linejoin:miter;stroke-opacity:1;stroke-miterlimit:4;stroke-dasharray:none"
       d="M 160,0 L 160,320"
       id="path3962" />
    <path
       style="fill:none;fill-rule:evenodd;stroke:#000000;stroke-width:10;stroke-linecap:butt;stroke-linejoin:miter;stroke-opacity:1;stroke-miterlimit:4;stroke-dasharray:none"
       d="M 0,160 L 320,160"
       id="path3964" />
    <g
       style="font-size:80px"
       id="text3966">
      <path
         d="m 52.876953,215.39258 0,24.03808 14.238281,0 q 7.163086,0 10.590821,-2.94433 3.471679,-2.98828 3.471679,-9.09668 0,-6.15235 -3.471679,-9.05274 -3.427735,-2.94433 -10.590821,-2.94433 l -14.238281,0 z m 0,-26.98242 0,19.77539 13.139649,0 q 6.503906,0 9.667968,-2.417 3.208008,-2.46093 3.208008,-7.4707 0,-4.96582 -3.208008,-7.42676 -3.164062,-2.46093 -9.667968,-2.46093 l -13.139649,0 z M 44,181.11523 l 22.675781,0 q 10.151367,0 15.644531,4.21875 5.493165,4.21875 5.493165,11.99707 0,6.02051 -2.8125,9.58008 -2.8125,3.55957 -8.261719,4.43848 6.547851,1.40625 10.151367,5.88867 3.647461,4.43848 3.647461,11.11817 0,8.78906 -5.976563,13.5791 -5.976562,4.79004 -17.006836,4.79004 l -23.554687,0 0,-65.61036 z"
         style="font-size:90px"
         id="path6940" />
      <path
         d="m 147.44727,220.09473 0,3.95507 -37.17774,0 q 0.52735,8.34961 5.00977,12.74415 4.52636,4.35058 12.56836,4.35058 4.6582,0 9.00879,-1.14258 4.39453,-1.14258 8.70117,-3.42773 l 0,7.64648 q -4.35059,1.84571 -8.9209,2.8125 -4.57031,0.9668 -9.27246,0.9668 -11.77735,0 -18.67676,-6.85547 -6.85547,-6.85547 -6.85547,-18.54492 0,-12.08496 6.50391,-19.16016 6.54785,-7.11914 17.62207,-7.11914 9.93164,0 15.68847,6.41602 5.80079,6.37207 5.80079,17.3584 z m -8.08594,-2.37305 q -0.0879,-6.63574 -3.73535,-10.59082 -3.60352,-3.95508 -9.58008,-3.95508 -6.76758,0 -10.85449,3.82324 -4.04297,3.82325 -4.65821,10.7666 l 28.82813,-0.0439 z"
         style="font-size:90px"
         id="path6942" />
    </g>
    <g
       style="font-size:80px"
       id="text3970">
      <path
         d="m 64,73.115234 8.876953,0 0,58.139646 31.948247,0 0,7.47071 -40.8252,0 0,-65.610356 z"
         style="font-size:90px"
         id="path6945" />
      <path
         d="m 113.74609,89.506836 8.08594,0 0,49.218754 -8.08594,0 0,-49.218754 z m 0,-19.160156 8.08594,0 0,10.239257 -8.08594,0 0,-10.239257 z"
         style="font-size:90px"
         id="path6947" />
    </g>
    <g
       style="font-size:80px"
       id="text3974">
      <path
         d="m 178.81445,72 11.95313,0 29.09179,54.8877 0,-54.8877 8.61329,0 0,65.61035 -11.95313,0 -29.0918,-54.887694 0,54.887694 -8.61328,0 0,-65.61035 z"
         style="font-size:90px"
         id="path6932" />
      <path
         d="m 268.15527,112.86914 q -9.7998,0 -13.5791,2.24121 -3.7793,2.24121 -3.7793,7.64649 0,4.30664 2.8125,6.85546 2.85645,2.50489 7.73438,2.50489 6.72363,0 10.7666,-4.7461 4.08692,-4.79004 4.08692,-12.70019 l 0,-1.80176 -8.042,0 z m 16.12793,-3.33984 0,28.08105 -8.08593,0 0,-7.4707 q -2.76856,4.48242 -6.89942,6.63574 -4.13086,2.10938 -10.10742,2.10938 -7.55859,0 -12.04102,-4.21875 -4.43847,-4.2627 -4.43847,-11.38184 0,-8.30566 5.53711,-12.52441 5.58105,-4.21875 16.61132,-4.21875 l 11.3379,0 0,-0.79102 q 0,-5.58105 -3.69141,-8.613281 -3.64746,-3.076172 -10.2832,-3.076172 -4.21875,0 -8.21778,1.010742 -3.99902,1.010742 -7.69043,3.032227 l 0,-7.470704 q 4.43848,-1.713867 8.61328,-2.548828 4.17481,-0.878906 8.12989,-0.878906 10.67871,0 15.95215,5.537109 5.27343,5.53711 5.27343,16.787113 z"
         style="font-size:90px"
         id="path6934" />
    </g>
    <g
       style="font-size:80px"
       id="text3978">
      <path
         d="m 174,184.38965 13.22754,0 16.74316,44.64844 16.83106,-44.64844 13.22754,0 0,65.61035 -8.65723,0 0,-57.6123 -16.91895,45 -8.92089,0 -16.91895,-45 0,57.6123 -8.61328,0 0,-65.61035 z"
         style="font-size:90px"
         id="path6937" />
    </g>
    <g
       style="font-size:80px"
       id="text2248">
      <path
         d="m 275.90332,226.09863 q 0,-8.78906 -3.64746,-13.62304 -3.60352,-4.83399 -10.15137,-4.83399 -6.5039,0 -10.15137,4.83399 -3.60351,4.83398 -3.60351,13.62304 0,8.74512 3.60351,13.5791 3.64747,4.83399 10.15137,4.83399 6.54785,0 10.15137,-4.83399 3.64746,-4.83398 3.64746,-13.5791 z m 8.08594,19.07227 q 0,12.56836 -5.58106,18.67676 Q 272.82715,270 261.31348,270 q -4.2627,0 -8.042,-0.65918 -3.77929,-0.61523 -7.33886,-1.93359 l 0,-7.86621 q 3.55957,1.93359 7.03125,2.85644 3.47168,0.92285 7.07519,0.92285 7.9541,0 11.90918,-4.1748 3.95508,-4.13086 3.95508,-12.52442 l 0,-3.99902 q -2.50488,4.35059 -6.41602,6.50391 -3.91113,2.15332 -9.36035,2.15332 -9.05273,0 -14.58984,-6.89942 Q 240,237.48047 240,226.09863 q 0,-11.42578 5.53711,-18.32519 5.53711,-6.89942 14.58984,-6.89942 5.44922,0 9.36035,2.15332 3.91114,2.15332 6.41602,6.50391 l 0,-7.4707 8.08594,0 0,43.11035 z"
         style="font-size:90px"
         id="path6929" />
    </g>
  </g>
</svg>
