<?xml version="1.0" encoding="UTF-8" standalone="no"?>
<!-- Created with Inkscape (http://www.inkscape.org/) -->
<svg
   xmlns:dc="http://purl.org/dc/elements/1.1/"
   xmlns:cc="http://web.resource.org/cc/"
   xmlns:rdf="http://www.w3.org/1999/02/22-rdf-syntax-ns#"
   xmlns:svg="http://www.w3.org/2000/svg"
   xmlns="http://www.w3.org/2000/svg"
   xmlns:sodipodi="http://sodipodi.sourceforge.net/DTD/sodipodi-0.dtd"
   xmlns:inkscape="http://www.inkscape.org/namespaces/inkscape"
   width="320"
   height="320"
   id="svg2"
   sodipodi:version="0.32"
   inkscape:version="0.45.1"
   version="1.0"
   sodipodi:docbase="/home/aclark/CRK3/MMTk/images/msk"
   sodipodi:docname="BondSquig.svg"
   inkscape:output_extension="org.inkscape.output.svg.inkscape"
   inkscape:export-filename="/home/aclark/CRK3/MMTk/images/msk/BondSquig.png"
   inkscape:export-xdpi="9"
   inkscape:export-ydpi="9">
  <defs
     id="defs4" />
  <sodipodi:namedview
     id="base"
     pagecolor="#ffffff"
     bordercolor="#666666"
     borderopacity="1.0"
     gridtolerance="10000"
     guidetolerance="10"
     objecttolerance="10"
     inkscape:pageopacity="0.0"
     inkscape:pageshadow="2"
     inkscape:zoom="1.4"
     inkscape:cx="171.24224"
     inkscape:cy="115.93898"
     inkscape:document-units="px"
     inkscape:current-layer="layer1"
     width="320px"
     height="320px"
     showborder="true"
     inkscape:window-width="814"
     inkscape:window-height="842"
     inkscape:window-x="0"
     inkscape:window-y="104"
     showgrid="true" />
  <metadata
     id="metadata7">
    <rdf:RDF>
      <cc:Work
         rdf:about="">
        <dc:format>image/svg+xml</dc:format>
        <dc:type
           rdf:resource="http://purl.org/dc/dcmitype/StillImage" />
      </cc:Work>
    </rdf:RDF>
  </metadata>
  <g
     inkscape:label="Layer 1"
     inkscape:groupmode="layer"
     id="layer1">
    <path
       style="fill:none;fill-rule:evenodd;stroke:#000000;stroke-width:19.70939255;stroke-linecap:round;stroke-linejoin:round;stroke-miterlimit:4;stroke-dasharray:none;stroke-opacity:1"
       d="M 13.854696,160 C 23.404427,145.60525 31.644659,120.73451 42.883757,119.8547 C 52.560111,118.19483 66.522178,143.90673 71.912818,160 C 82.300825,178.10026 83.522733,199.152 100.94188,200.1453 C 119.40219,200.81786 121.80479,177.7981 129.97094,160 C 137.74367,142.33593 144.46966,118.67452 159,119.8547 C 175.82856,118.93206 179.97706,143.36954 188.02906,160 C 196.14175,177.45474 205.82635,200.76232 217.05812,200.1453 C 231.09125,199.83385 237.2755,175.9758 246.08718,160 C 254.09821,142.34457 263.95628,119.88399 275.11624,119.8547 C 289.09333,120.33425 295.4277,143.74196 304.1453,160 L 304.1453,160 L 304.1453,160"
       id="path3749"
       sodipodi:nodetypes="ccccccccccccc" />
  </g>
</svg>
