<?xml version="1.0" encoding="UTF-8" standalone="no"?>
<!-- Created with Inkscape (http://www.inkscape.org/) -->

<svg
   xmlns:dc="http://purl.org/dc/elements/1.1/"
   xmlns:cc="http://creativecommons.org/ns#"
   xmlns:rdf="http://www.w3.org/1999/02/22-rdf-syntax-ns#"
   xmlns:svg="http://www.w3.org/2000/svg"
   xmlns="http://www.w3.org/2000/svg"
   xmlns:sodipodi="http://sodipodi.sourceforge.net/DTD/sodipodi-0.dtd"
   xmlns:inkscape="http://www.inkscape.org/namespaces/inkscape"
   width="320"
   height="320"
   id="svg2"
   sodipodi:version="0.32"
   inkscape:version="0.47 r22583"
   version="1.0"
   sodipodi:docname="BondConnect.svg"
   inkscape:output_extension="org.inkscape.output.svg.inkscape"
   inkscape:export-filename="/home/aclark/CRK3/MMTk/images/msk/AtomEdit.png"
   inkscape:export-xdpi="9"
   inkscape:export-ydpi="9">
  <defs
     id="defs4">
    <inkscape:perspective
       sodipodi:type="inkscape:persp3d"
       inkscape:vp_x="0 : 160 : 1"
       inkscape:vp_y="0 : 1000 : 0"
       inkscape:vp_z="320 : 160 : 1"
       inkscape:persp3d-origin="160 : 106.66667 : 1"
       id="perspective20" />
    <inkscape:perspective
       id="perspective3610"
       inkscape:persp3d-origin="0.5 : 0.33333333 : 1"
       inkscape:vp_z="1 : 0.5 : 1"
       inkscape:vp_y="0 : 1000 : 0"
       inkscape:vp_x="0 : 0.5 : 1"
       sodipodi:type="inkscape:persp3d" />
  </defs>
  <sodipodi:namedview
     id="base"
     pagecolor="#ffffff"
     bordercolor="#666666"
     borderopacity="1.0"
     gridtolerance="10000"
     guidetolerance="10"
     objecttolerance="10"
     inkscape:pageopacity="0.0"
     inkscape:pageshadow="2"
     inkscape:zoom="1.4142136"
     inkscape:cx="58.736921"
     inkscape:cy="158.99107"
     inkscape:document-units="px"
     inkscape:current-layer="layer1"
     width="320px"
     height="320px"
     showborder="true"
     inkscape:window-width="1440"
     inkscape:window-height="838"
     inkscape:window-x="-8"
     inkscape:window-y="-8"
     showgrid="true"
     inkscape:window-maximized="1">
    <inkscape:grid
       type="xygrid"
       id="grid2826" />
  </sodipodi:namedview>
  <metadata
     id="metadata7">
    <rdf:RDF>
      <cc:Work
         rdf:about="">
        <dc:format>image/svg+xml</dc:format>
        <dc:type
           rdf:resource="http://purl.org/dc/dcmitype/StillImage" />
      </cc:Work>
    </rdf:RDF>
  </metadata>
  <g
     inkscape:label="Layer 1"
     inkscape:groupmode="layer"
     id="layer1">
    <path
       style="fill:none;stroke:#ffffff;stroke-width:20;stroke-linecap:butt;stroke-linejoin:miter;stroke-miterlimit:4;stroke-opacity:0.75;stroke-dasharray:none"
       d="m 250,70 -180,0 0,180 180,0 0,-180 z"
       id="path2828-1"
       sodipodi:nodetypes="ccccs" />
    <path
       style="fill:none;stroke:#000000;stroke-width:10;stroke-linecap:butt;stroke-linejoin:miter;stroke-opacity:1;stroke-miterlimit:4;stroke-dasharray:none"
       d="m 250,70 -180,0 0,180 180,0 0,-180 z"
       id="path2828"
       sodipodi:nodetypes="ccccs" />
    <path
       sodipodi:type="arc"
       style="fill:#ffffff;fill-opacity:1;stroke:#000000;stroke-width:3.14762712;stroke-linecap:round;stroke-linejoin:round;stroke-miterlimit:4;stroke-opacity:1;stroke-dasharray:none;stroke-dashoffset:4.00000022"
       id="path3171"
       sodipodi:cx="231.22392"
       sodipodi:cy="101.15045"
       sodipodi:rx="24.748737"
       sodipodi:ry="30.052038"
       d="m 255.97266,101.15045 a 24.748737,30.052038 0 1 1 -49.49747,0 24.748737,30.052038 0 1 1 49.49747,0 z"
       transform="matrix(1.7898996,0,0,1.4097586,-343.35469,-70.947524)" />
    <path
       sodipodi:type="arc"
       style="fill:#6c6666;fill-opacity:1;stroke:#000000;stroke-width:10;stroke-linecap:round;stroke-linejoin:round;stroke-miterlimit:4;stroke-opacity:1;stroke-dasharray:none;stroke-dashoffset:4.00000022"
       id="path3173"
       sodipodi:cx="231.22392"
       sodipodi:cy="101.15045"
       sodipodi:rx="24.748737"
       sodipodi:ry="30.052038"
       d="m 255.97266,101.15045 a 24.748737,30.052038 0 1 1 -49.49747,0 24.748737,30.052038 0 1 1 49.49747,0 z"
       transform="matrix(0.5318008,0,0,0.4497183,-52.092499,24.688162)" />
    <path
       sodipodi:type="arc"
       style="fill:#ffffff;fill-opacity:1;stroke:#000000;stroke-width:3.14762712;stroke-linecap:round;stroke-linejoin:round;stroke-miterlimit:4;stroke-opacity:1;stroke-dasharray:none;stroke-dashoffset:4.00000022"
       id="path3243"
       sodipodi:cx="231.22392"
       sodipodi:cy="101.15045"
       sodipodi:rx="24.748737"
       sodipodi:ry="30.052038"
       d="m 255.97266,101.15045 a 24.748737,30.052038 0 1 1 -49.49747,0 24.748737,30.052038 0 1 1 49.49747,0 z"
       transform="matrix(1.7898996,0,0,1.4097586,-165.19783,-71.889527)" />
    <path
       sodipodi:type="arc"
       style="fill:#6c6666;fill-opacity:1;stroke:#000000;stroke-width:10;stroke-linecap:round;stroke-linejoin:round;stroke-miterlimit:4;stroke-opacity:1;stroke-dasharray:none;stroke-dashoffset:4.00000022"
       id="path3177"
       sodipodi:cx="231.22392"
       sodipodi:cy="101.15045"
       sodipodi:rx="24.748737"
       sodipodi:ry="30.052038"
       d="m 255.97266,101.15045 a 24.748737,30.052038 0 1 1 -49.49747,0 24.748737,30.052038 0 1 1 49.49747,0 z"
       transform="matrix(0.5318008,0,0,0.4497183,126.0984,25.516592)" />
    <path
       sodipodi:type="arc"
       style="fill:#ffffff;fill-opacity:1;stroke:#000000;stroke-width:3.14762712;stroke-linecap:round;stroke-linejoin:round;stroke-miterlimit:4;stroke-opacity:1;stroke-dasharray:none;stroke-dashoffset:4.00000022"
       id="path3249"
       sodipodi:cx="231.22392"
       sodipodi:cy="101.15045"
       sodipodi:rx="24.748737"
       sodipodi:ry="30.052038"
       d="m 255.97266,101.15045 a 24.748737,30.052038 0 1 1 -49.49747,0 24.748737,30.052038 0 1 1 49.49747,0 z"
       transform="matrix(1.7898996,0,0,1.4097586,-345.4172,107.06757)" />
    <path
       sodipodi:type="arc"
       style="fill:#6c6666;fill-opacity:1;stroke:#000000;stroke-width:10;stroke-linecap:round;stroke-linejoin:round;stroke-miterlimit:4;stroke-opacity:1;stroke-dasharray:none;stroke-dashoffset:4.00000022"
       id="path3181"
       sodipodi:cx="231.22392"
       sodipodi:cy="101.15045"
       sodipodi:rx="24.748737"
       sodipodi:ry="30.052038"
       d="m 255.97266,101.15045 a 24.748737,30.052038 0 1 1 -49.49747,0 24.748737,30.052038 0 1 1 49.49747,0 z"
       transform="matrix(0.5318008,0,0,0.4497183,-53.849855,203.07652)" />
    <path
       sodipodi:type="arc"
       style="fill:#ffffff;fill-opacity:1;stroke:#000000;stroke-width:3.14762712;stroke-linecap:round;stroke-linejoin:round;stroke-miterlimit:4;stroke-opacity:1;stroke-dasharray:none;stroke-dashoffset:4.00000022"
       id="path3245"
       sodipodi:cx="231.22392"
       sodipodi:cy="101.15045"
       sodipodi:rx="24.748737"
       sodipodi:ry="30.052038"
       d="m 255.97266,101.15045 a 24.748737,30.052038 0 1 1 -49.49747,0 24.748737,30.052038 0 1 1 49.49747,0 z"
       transform="matrix(1.7898996,0,0,1.4097586,-164.39386,107.71324)" />
    <path
       sodipodi:type="arc"
       style="fill:#6c6666;fill-opacity:1;stroke:#000000;stroke-width:10;stroke-linecap:round;stroke-linejoin:round;stroke-miterlimit:4;stroke-opacity:1;stroke-dasharray:none;stroke-dashoffset:4.00000022"
       id="path3189"
       sodipodi:cx="231.22392"
       sodipodi:cy="101.15045"
       sodipodi:rx="24.748737"
       sodipodi:ry="30.052038"
       d="m 255.97266,101.15045 a 24.748737,30.052038 0 1 1 -49.49747,0 24.748737,30.052038 0 1 1 49.49747,0 z"
       transform="matrix(0.5318008,0,0,0.4497183,126.21973,203.31915)" />
  </g>
</svg>
