<?xml version="1.0" encoding="UTF-8" standalone="no"?>
<!-- Created with Inkscape (http://www.inkscape.org/) -->

<svg
   xmlns:dc="http://purl.org/dc/elements/1.1/"
   xmlns:cc="http://creativecommons.org/ns#"
   xmlns:rdf="http://www.w3.org/1999/02/22-rdf-syntax-ns#"
   xmlns:svg="http://www.w3.org/2000/svg"
   xmlns="http://www.w3.org/2000/svg"
   xmlns:sodipodi="http://sodipodi.sourceforge.net/DTD/sodipodi-0.dtd"
   xmlns:inkscape="http://www.inkscape.org/namespaces/inkscape"
   width="320"
   height="320"
   id="svg2"
   sodipodi:version="0.32"
   inkscape:version="0.47 r22583"
   version="1.0"
   sodipodi:docname="BondDisconnect.svg"
   inkscape:output_extension="org.inkscape.output.svg.inkscape"
   inkscape:export-filename="/home/aclark/CRK3/MMTk/images/msk/AtomEdit.png"
   inkscape:export-xdpi="9"
   inkscape:export-ydpi="9">
  <defs
     id="defs4">
    <inkscape:perspective
       sodipodi:type="inkscape:persp3d"
       inkscape:vp_x="0 : 160 : 1"
       inkscape:vp_y="0 : 1000 : 0"
       inkscape:vp_z="320 : 160 : 1"
       inkscape:persp3d-origin="160 : 106.66667 : 1"
       id="perspective20" />
    <inkscape:perspective
       id="perspective3610"
       inkscape:persp3d-origin="0.5 : 0.33333333 : 1"
       inkscape:vp_z="1 : 0.5 : 1"
       inkscape:vp_y="0 : 1000 : 0"
       inkscape:vp_x="0 : 0.5 : 1"
       sodipodi:type="inkscape:persp3d" />
    <inkscape:perspective
       id="perspective3617"
       inkscape:persp3d-origin="0.5 : 0.33333333 : 1"
       inkscape:vp_z="1 : 0.5 : 1"
       inkscape:vp_y="0 : 1000 : 0"
       inkscape:vp_x="0 : 0.5 : 1"
       sodipodi:type="inkscape:persp3d" />
    <inkscape:perspective
       id="perspective3617-7"
       inkscape:persp3d-origin="0.5 : 0.33333333 : 1"
       inkscape:vp_z="1 : 0.5 : 1"
       inkscape:vp_y="0 : 1000 : 0"
       inkscape:vp_x="0 : 0.5 : 1"
       sodipodi:type="inkscape:persp3d" />
    <inkscape:perspective
       id="perspective3617-0"
       inkscape:persp3d-origin="0.5 : 0.33333333 : 1"
       inkscape:vp_z="1 : 0.5 : 1"
       inkscape:vp_y="0 : 1000 : 0"
       inkscape:vp_x="0 : 0.5 : 1"
       sodipodi:type="inkscape:persp3d" />
  </defs>
  <sodipodi:namedview
     id="base"
     pagecolor="#ffffff"
     bordercolor="#666666"
     borderopacity="1.0"
     gridtolerance="10000"
     guidetolerance="10"
     objecttolerance="10"
     inkscape:pageopacity="0.0"
     inkscape:pageshadow="2"
     inkscape:zoom="1.4142136"
     inkscape:cx="94.113579"
     inkscape:cy="158.99107"
     inkscape:document-units="px"
     inkscape:current-layer="layer1"
     width="320px"
     height="320px"
     showborder="true"
     inkscape:window-width="1440"
     inkscape:window-height="838"
     inkscape:window-x="-8"
     inkscape:window-y="-8"
     showgrid="false"
     inkscape:window-maximized="1">
    <inkscape:grid
       type="xygrid"
       id="grid2826" />
  </sodipodi:namedview>
  <metadata
     id="metadata7">
    <rdf:RDF>
      <cc:Work
         rdf:about="">
        <dc:format>image/svg+xml</dc:format>
        <dc:type
           rdf:resource="http://purl.org/dc/dcmitype/StillImage" />
      </cc:Work>
    </rdf:RDF>
  </metadata>
  <g
     inkscape:label="Layer 1"
     inkscape:groupmode="layer"
     id="layer1">
    <path
       style="fill:none;stroke:#ffffff;stroke-width:20;stroke-linecap:butt;stroke-linejoin:miter;stroke-miterlimit:4;stroke-opacity:0.75;stroke-dasharray:none"
       d="m 250,70 -180,0 0,180 180,0 0,-180 z"
       id="path2828-1"
       sodipodi:nodetypes="ccccs" />
    <path
       style="fill:none;stroke:#000000;stroke-width:10;stroke-linecap:butt;stroke-linejoin:miter;stroke-opacity:1;stroke-miterlimit:4;stroke-dasharray:10,10;stroke-dashoffset:0"
       d="m 250,70 -180,0 0,180 180,0 0,-180 z"
       id="path2828"
       sodipodi:nodetypes="ccccs" />
    <path
       sodipodi:type="arc"
       style="fill:#ffffff;fill-opacity:1;stroke:#000000;stroke-width:3.14762712;stroke-linecap:round;stroke-linejoin:round;stroke-miterlimit:4;stroke-opacity:1;stroke-dasharray:none;stroke-dashoffset:4.00000022"
       id="path3171"
       sodipodi:cx="231.22392"
       sodipodi:cy="101.15045"
       sodipodi:rx="24.748737"
       sodipodi:ry="30.052038"
       d="m 255.97266,101.15045 a 24.748737,30.052038 0 1 1 -49.49747,0 24.748737,30.052038 0 1 1 49.49747,0 z"
       transform="matrix(1.7898996,0,0,1.4097586,-343.35469,-70.947524)" />
    <path
       sodipodi:type="arc"
       style="fill:#6c6666;fill-opacity:1;stroke:#000000;stroke-width:10;stroke-linecap:round;stroke-linejoin:round;stroke-miterlimit:4;stroke-opacity:1;stroke-dasharray:none;stroke-dashoffset:4.00000022"
       id="path3173"
       sodipodi:cx="231.22392"
       sodipodi:cy="101.15045"
       sodipodi:rx="24.748737"
       sodipodi:ry="30.052038"
       d="m 255.97266,101.15045 a 24.748737,30.052038 0 1 1 -49.49747,0 24.748737,30.052038 0 1 1 49.49747,0 z"
       transform="matrix(0.5318008,0,0,0.4497183,-52.092499,24.688162)" />
    <path
       sodipodi:type="arc"
       style="fill:#ffffff;fill-opacity:1;stroke:#000000;stroke-width:3.14762712;stroke-linecap:round;stroke-linejoin:round;stroke-miterlimit:4;stroke-opacity:1;stroke-dasharray:none;stroke-dashoffset:4.00000022"
       id="path3243"
       sodipodi:cx="231.22392"
       sodipodi:cy="101.15045"
       sodipodi:rx="24.748737"
       sodipodi:ry="30.052038"
       d="m 255.97266,101.15045 a 24.748737,30.052038 0 1 1 -49.49747,0 24.748737,30.052038 0 1 1 49.49747,0 z"
       transform="matrix(1.7898996,0,0,1.4097586,-165.19783,-71.889527)" />
    <path
       sodipodi:type="arc"
       style="fill:#6c6666;fill-opacity:1;stroke:#000000;stroke-width:10;stroke-linecap:round;stroke-linejoin:round;stroke-miterlimit:4;stroke-opacity:1;stroke-dasharray:none;stroke-dashoffset:4.00000022"
       id="path3177"
       sodipodi:cx="231.22392"
       sodipodi:cy="101.15045"
       sodipodi:rx="24.748737"
       sodipodi:ry="30.052038"
       d="m 255.97266,101.15045 a 24.748737,30.052038 0 1 1 -49.49747,0 24.748737,30.052038 0 1 1 49.49747,0 z"
       transform="matrix(0.5318008,0,0,0.4497183,126.0984,25.516592)" />
    <path
       sodipodi:type="arc"
       style="fill:#ffffff;fill-opacity:1;stroke:#000000;stroke-width:3.14762712;stroke-linecap:round;stroke-linejoin:round;stroke-miterlimit:4;stroke-opacity:1;stroke-dasharray:none;stroke-dashoffset:4.00000022"
       id="path3249"
       sodipodi:cx="231.22392"
       sodipodi:cy="101.15045"
       sodipodi:rx="24.748737"
       sodipodi:ry="30.052038"
       d="m 255.97266,101.15045 a 24.748737,30.052038 0 1 1 -49.49747,0 24.748737,30.052038 0 1 1 49.49747,0 z"
       transform="matrix(1.7898996,0,0,1.4097586,-345.4172,107.06757)" />
    <path
       sodipodi:type="arc"
       style="fill:#6c6666;fill-opacity:1;stroke:#000000;stroke-width:10;stroke-linecap:round;stroke-linejoin:round;stroke-miterlimit:4;stroke-opacity:1;stroke-dasharray:none;stroke-dashoffset:4.00000022"
       id="path3181"
       sodipodi:cx="231.22392"
       sodipodi:cy="101.15045"
       sodipodi:rx="24.748737"
       sodipodi:ry="30.052038"
       d="m 255.97266,101.15045 a 24.748737,30.052038 0 1 1 -49.49747,0 24.748737,30.052038 0 1 1 49.49747,0 z"
       transform="matrix(0.5318008,0,0,0.4497183,-53.849855,203.07652)" />
    <path
       sodipodi:type="arc"
       style="fill:#ffffff;fill-opacity:1;stroke:#000000;stroke-width:3.14762712;stroke-linecap:round;stroke-linejoin:round;stroke-miterlimit:4;stroke-opacity:1;stroke-dasharray:none;stroke-dashoffset:4.00000022"
       id="path3245"
       sodipodi:cx="231.22392"
       sodipodi:cy="101.15045"
       sodipodi:rx="24.748737"
       sodipodi:ry="30.052038"
       d="m 255.97266,101.15045 a 24.748737,30.052038 0 1 1 -49.49747,0 24.748737,30.052038 0 1 1 49.49747,0 z"
       transform="matrix(1.7898996,0,0,1.4097586,-164.39386,107.71324)" />
    <path
       sodipodi:type="arc"
       style="fill:#6c6666;fill-opacity:1;stroke:#000000;stroke-width:10;stroke-linecap:round;stroke-linejoin:round;stroke-miterlimit:4;stroke-opacity:1;stroke-dasharray:none;stroke-dashoffset:4.00000022"
       id="path3189"
       sodipodi:cx="231.22392"
       sodipodi:cy="101.15045"
       sodipodi:rx="24.748737"
       sodipodi:ry="30.052038"
       d="m 255.97266,101.15045 a 24.748737,30.052038 0 1 1 -49.49747,0 24.748737,30.052038 0 1 1 49.49747,0 z"
       transform="matrix(0.5318008,0,0,0.4497183,126.21973,203.31915)" />
    <path
       style="font-size:medium;font-style:normal;font-variant:normal;font-weight:normal;font-stretch:normal;text-indent:0;text-align:start;text-decoration:none;line-height:normal;letter-spacing:normal;word-spacing:normal;text-transform:none;direction:ltr;block-progression:tb;writing-mode:lr-tb;text-anchor:start;color:#000000;fill:#404040;fill-opacity:0.75;stroke:none;stroke-width:10;marker:none;visibility:visible;display:inline;overflow:visible;enable-background:accumulate;font-family:Bitstream Vera Sans;-inkscape-font-specification:Bitstream Vera Sans"
       d="m 219.95535,119.18728 a 5.0005,5.0005 0 0 0 -3.46875,8.59375 l 26.46875,26.46875 -26.46875,26.46875 a 5.0005,5.0005 0 1 0 7.0625,7.0625 l 26.46875,-26.46875 26.46875,26.46875 a 5.0005,5.0005 0 1 0 7.0625,-7.0625 l -26.46875,-26.46875 26.46875,-26.46875 a 5.0005,5.0005 0 0 0 -3.625,-8.59375 5.0005,5.0005 0 0 0 -3.4375,1.53125 l -26.46875,26.46875 -26.46875,-26.46875 a 5.0005,5.0005 0 0 0 -3.59375,-1.53125 z"
       id="path3596" />
    <path
       style="font-size:medium;font-style:normal;font-variant:normal;font-weight:normal;font-stretch:normal;text-indent:0;text-align:start;text-decoration:none;line-height:normal;letter-spacing:normal;word-spacing:normal;text-transform:none;direction:ltr;block-progression:tb;writing-mode:lr-tb;text-anchor:start;color:#000000;fill:#404040;fill-opacity:0.75;stroke:none;stroke-width:10;marker:none;visibility:visible;display:inline;overflow:visible;enable-background:accumulate;font-family:Bitstream Vera Sans;-inkscape-font-specification:Bitstream Vera Sans"
       d="m 135.72995,213.91877 a 5.0005,5.0005 0 0 0 -3.46875,8.59375 l 26.46875,26.46875 -26.46875,26.46875 a 5.0005,5.0005 0 1 0 7.0625,7.0625 l 26.46875,-26.46875 26.46875,26.46875 a 5.0005,5.0005 0 1 0 7.06251,-7.0625 l -26.46876,-26.46875 26.46876,-26.46875 a 5.0005,5.0005 0 0 0 -3.62501,-8.59375 5.0005,5.0005 0 0 0 -3.4375,1.53125 l -26.46875,26.46875 -26.46875,-26.46875 a 5.0005,5.0005 0 0 0 -3.59375,-1.53125 z"
       id="path3596-1" />
    <path
       style="font-size:medium;font-style:normal;font-variant:normal;font-weight:normal;font-stretch:normal;text-indent:0;text-align:start;text-decoration:none;line-height:normal;letter-spacing:normal;word-spacing:normal;text-transform:none;direction:ltr;block-progression:tb;writing-mode:lr-tb;text-anchor:start;color:#000000;fill:#404040;fill-opacity:0.75;stroke:none;stroke-width:10;marker:none;visibility:visible;display:inline;overflow:visible;enable-background:accumulate;font-family:Bitstream Vera Sans;-inkscape-font-specification:Bitstream Vera Sans"
       d="m 124.51675,33.949695 a 5.0005,5.0005 0 0 0 -3.46875,8.59375 l 26.46875,26.468749 -26.46875,26.46875 a 5.0005,5.0005 0 1 0 7.0625,7.062496 L 154.57925,76.074694 181.048,102.54344 a 5.0005,5.0005 0 1 0 7.0625,-7.062496 L 161.64175,69.012194 188.1105,42.543445 a 5.0005,5.0005 0 0 0 -3.625,-8.59375 5.0005,5.0005 0 0 0 -3.4375,1.53125 L 154.57925,61.949694 128.1105,35.480945 a 5.0005,5.0005 0 0 0 -3.59375,-1.53125 z"
       id="path3596-4" />
    <path
       style="font-size:medium;font-style:normal;font-variant:normal;font-weight:normal;font-stretch:normal;text-indent:0;text-align:start;text-decoration:none;line-height:normal;letter-spacing:normal;word-spacing:normal;text-transform:none;direction:ltr;block-progression:tb;writing-mode:lr-tb;text-anchor:start;color:#000000;fill:#404040;fill-opacity:0.75;stroke:none;stroke-width:10;marker:none;visibility:visible;display:inline;overflow:visible;enable-background:accumulate;font-family:Bitstream Vera Sans;-inkscape-font-specification:Bitstream Vera Sans"
       d="M 39.468745,129.40625 A 5.0005,5.0005 0 0 0 35.999995,138 l 26.46875,26.46875 -26.46875,26.46875 A 5.0005,5.0005 0 1 0 43.062495,198 L 69.531245,171.53125 96,198 a 5.0005,5.0005 0 1 0 7.0625,-7.0625 L 76.593745,164.46875 103.0625,138 A 5.0005,5.0005 0 0 0 99.4375,129.40625 5.0005,5.0005 0 0 0 96,130.9375 L 69.531245,157.40625 43.062495,130.9375 a 5.0005,5.0005 0 0 0 -3.59375,-1.53125 z"
       id="path3596-9" />
  </g>
</svg>
