<?xml version="1.0" encoding="UTF-8" standalone="no"?>
<!-- Created with Inkscape (http://www.inkscape.org/) -->

<svg
   xmlns:dc="http://purl.org/dc/elements/1.1/"
   xmlns:cc="http://creativecommons.org/ns#"
   xmlns:rdf="http://www.w3.org/1999/02/22-rdf-syntax-ns#"
   xmlns:svg="http://www.w3.org/2000/svg"
   xmlns="http://www.w3.org/2000/svg"
   xmlns:xlink="http://www.w3.org/1999/xlink"
   xmlns:sodipodi="http://sodipodi.sourceforge.net/DTD/sodipodi-0.dtd"
   xmlns:inkscape="http://www.inkscape.org/namespaces/inkscape"
   width="320"
   height="320"
   id="svg2"
   sodipodi:version="0.32"
   inkscape:version="0.47 r22583"
   version="1.0"
   sodipodi:docname="MainZoomOut.svg"
   inkscape:output_extension="org.inkscape.output.svg.inkscape"
   inkscape:export-filename="C:\work\eclipse\MMDS\scratch\msk\MainZoomOut.png"
   inkscape:export-xdpi="12.375"
   inkscape:export-ydpi="12.375">
  <defs
     id="defs4">
    <inkscape:perspective
       sodipodi:type="inkscape:persp3d"
       inkscape:vp_x="0 : 160 : 1"
       inkscape:vp_y="0 : 1000 : 0"
       inkscape:vp_z="320 : 160 : 1"
       inkscape:persp3d-origin="160 : 106.66667 : 1"
       id="perspective3832" />
  </defs>
  <sodipodi:namedview
     id="base"
     pagecolor="#ffffff"
     bordercolor="#666666"
     borderopacity="1.0"
     gridtolerance="10000"
     guidetolerance="10"
     objecttolerance="10"
     inkscape:pageopacity="0.0"
     inkscape:pageshadow="2"
     inkscape:zoom="1.4"
     inkscape:cx="154.5481"
     inkscape:cy="146.35603"
     inkscape:document-units="px"
     inkscape:current-layer="layer1"
     width="320px"
     height="320px"
     showborder="true"
     inkscape:window-width="1440"
     inkscape:window-height="838"
     inkscape:window-x="-8"
     inkscape:window-y="-8"
     showgrid="true"
     inkscape:window-maximized="1">
    <inkscape:grid
       type="xygrid"
       id="grid3854" />
  </sodipodi:namedview>
  <metadata
     id="metadata7">
    <rdf:RDF>
      <cc:Work
         rdf:about="">
        <dc:format>image/svg+xml</dc:format>
        <dc:type
           rdf:resource="http://purl.org/dc/dcmitype/StillImage" />
        <dc:title></dc:title>
      </cc:Work>
    </rdf:RDF>
  </metadata>
  <g
     inkscape:label="Layer 1"
     inkscape:groupmode="layer"
     id="layer1">
    <g
       transform="translate(62.703026,241.98783)"
       id="g3444">
      <g
         transform="scale(5.859375e-3,-5.859375e-3)"
         id="g3446">
        <use
           xlink:href="#char51"
           x="0"
           id="use3448"
           style="fill:#000000"
           y="0"
           width="320"
           height="320" />
      </g>
    </g>
    <g
       transform="translate(92.31631,241.98783)"
       id="g3450">
      <g
         transform="scale(5.859375e-3,-5.859375e-3)"
         id="g3452">
        <use
           xlink:href="#char46"
           x="0"
           id="use3454"
           style="fill:#000000"
           y="0"
           width="320"
           height="320" />
      </g>
    </g>
    <g
       transform="translate(62.081933,211.98783)"
       id="g3456">
      <g
         transform="scale(5.859375e-3,-5.859375e-3)"
         id="g3458">
        <use
           xlink:href="#char47"
           x="0"
           id="use3460"
           style="fill:#000000"
           y="0"
           width="320"
           height="320" />
      </g>
    </g>
    <g
       transform="translate(62.081933,271.98783)"
       id="g3462">
      <g
         transform="scale(5.859375e-3,-5.859375e-3)"
         id="g3464">
        <use
           xlink:href="#char47"
           x="0"
           id="use3466"
           style="fill:#000000"
           y="0"
           width="320"
           height="320" />
      </g>
    </g>
    <g
       transform="translate(243.63564,271.98783)"
       id="g3468">
      <g
         transform="scale(5.859375e-3,-5.859375e-3)"
         id="g3470">
        <use
           xlink:href="#char38"
           x="0"
           id="use3472"
           style="fill:#000000"
           y="0"
           width="320"
           height="320" />
        <use
           xlink:href="#char69"
           x="1227"
           id="use3474"
           style="fill:#000000"
           y="0"
           width="320"
           height="320" />
      </g>
    </g>
    <g
       transform="translate(208.2958,247.96859)"
       id="g3476">
      <g
         transform="scale(5.859375e-3,-5.859375e-3)"
         id="g3478">
        <use
           xlink:href="#char40"
           x="0"
           id="use3480"
           style="fill:#000000"
           y="0"
           width="320"
           height="320" />
      </g>
    </g>
    <g
       transform="translate(215.2958,204.00707)"
       id="g3482">
      <g
         transform="scale(5.859375e-3,-5.859375e-3)"
         id="g3484">
        <use
           xlink:href="#char40"
           x="0"
           id="use3486"
           style="fill:#000000"
           y="0"
           width="320"
           height="320" />
      </g>
    </g>
    <g
       transform="translate(275.2958,204.00707)"
       id="g3488">
      <g
         transform="scale(5.859375e-3,-5.859375e-3)"
         id="g3490">
        <use
           xlink:href="#char40"
           x="0"
           id="use3492"
           style="fill:#000000"
           y="0"
           width="320"
           height="320" />
      </g>
    </g>
    <g
       transform="translate(283.2958,243.96859)"
       id="g3494">
      <g
         transform="scale(5.859375e-3,-5.859375e-3)"
         id="g3496">
        <use
           xlink:href="#char40"
           x="0"
           id="use3498"
           style="fill:#000000"
           y="0"
           width="320"
           height="320" />
      </g>
    </g>
    <g
       transform="translate(102.68629,241.50525)"
       id="g3500">
      <g
         transform="scale(5.859375e-3,-5.859375e-3)"
         id="g3502">
        <use
           xlink:href="#char40"
           x="0"
           id="use3504"
           style="fill:#000000"
           y="0"
           width="320"
           height="320" />
      </g>
    </g>
    <g
       transform="translate(112.65748,242.7117)"
       id="g3506">
      <g
         transform="scale(2.9296875e-3,-2.9296875e-3)"
         id="g3508">
        <use
           xlink:href="#char18"
           x="0"
           id="use3510"
           style="fill:#000000"
           y="0"
           width="320"
           height="320" />
      </g>
    </g>
    <path
       style="font-size:medium;font-style:normal;font-variant:normal;font-weight:normal;font-stretch:normal;text-indent:0;text-align:start;text-decoration:none;line-height:normal;letter-spacing:normal;word-spacing:normal;text-transform:none;direction:ltr;block-progression:tb;writing-mode:lr-tb;text-anchor:start;color:#000000;fill:#ffffff;fill-opacity:1;stroke:#000000;stroke-width:5;marker:none;visibility:visible;display:inline;overflow:visible;enable-background:accumulate;font-family:Bitstream Vera Sans;-inkscape-font-specification:Bitstream Vera Sans;stroke-miterlimit:4;stroke-dasharray:none;stroke-opacity:1"
       d="M 159.25 10 C 77.278938 10 10.71875 76.943918 10.71875 159.21875 C 10.71875 241.49357 77.278938 308.40625 159.25 308.40625 C 241.22106 308.40625 307.84375 241.49357 307.84375 159.21875 C 307.84375 76.943918 241.22106 10 159.25 10 z M 155.875 27.59375 C 155.91666 27.592693 155.95833 27.594768 156 27.59375 L 156 61.4375 L 131 61.4375 C 129.03915 61.4413 127.12493 62.719466 126.375 64.53125 C 125.62507 66.343035 126.08423 68.580206 127.46875 69.96875 L 157.46875 99.96875 C 159.32168 101.83325 162.70957 101.83325 164.5625 99.96875 L 194.5625 69.96875 C 195.95072 68.576522 196.3826 66.314253 195.625 64.5 C 194.8674 62.685746 192.96606 61.429035 191 61.4375 L 166 61.4375 L 166 27.71875 C 233.43435 31.142779 287.33666 85.620853 290.1875 153.5625 L 258.4375 153.5625 L 258.4375 128.5625 C 258.4385 125.89168 255.95078 123.47931 253.28125 123.5625 C 252.02551 123.6047 250.79295 124.14106 249.90625 125.03125 L 219.90625 155.03125 C 218.06038 156.88197 218.06038 160.24303 219.90625 162.09375 L 249.90625 192.09375 C 251.29479 193.47827 253.53196 193.93743 255.34375 193.1875 C 257.15553 192.43757 258.43367 190.52335 258.4375 188.5625 L 258.4375 163.5625 L 290.25 163.5625 C 288.03607 232.42829 233.36911 287.73364 165.0625 290.71875 L 165.0625 260 L 190.0625 260 C 192.03598 260.009 193.96634 258.73069 194.71875 256.90625 C 195.47117 255.08181 194.99955 252.82257 193.59375 251.4375 L 163.59375 221.4375 C 162.64999 220.50778 161.3246 219.97762 160 220 C 158.71699 220.0103 157.44542 220.53722 156.53125 221.4375 L 126.53125 251.4375 C 125.12545 252.82257 124.65383 255.08181 125.40625 256.90625 C 126.15866 258.73069 128.08902 260.00857 130.0625 260 L 155.0625 260 L 155.0625 290.78125 C 86.483864 288.62253 31.34883 233.7369 28.40625 165 L 62.15625 165 L 62.15625 190 C 62.16005 191.96085 63.438216 193.84382 65.25 194.59375 C 67.061785 195.34368 69.298956 194.91577 70.6875 193.53125 L 100.6875 163.53125 C 102.53337 161.68053 102.53337 158.31947 100.6875 156.46875 L 70.6875 126.46875 C 69.741627 125.52028 68.401813 124.97743 67.0625 125 C 64.475993 125.0488 62.156049 127.41303 62.15625 130 L 62.15625 155 L 28.34375 155 C 30.519811 85.260706 86.399976 29.356768 155.875 27.59375 z "
       id="path4847" />
  </g>
</svg>
