<?xml version="1.0" encoding="UTF-8" standalone="no"?>
<!-- Created with Inkscape (http://www.inkscape.org/) -->

<svg
   xmlns:dc="http://purl.org/dc/elements/1.1/"
   xmlns:cc="http://creativecommons.org/ns#"
   xmlns:rdf="http://www.w3.org/1999/02/22-rdf-syntax-ns#"
   xmlns:svg="http://www.w3.org/2000/svg"
   xmlns="http://www.w3.org/2000/svg"
   xmlns:sodipodi="http://sodipodi.sourceforge.net/DTD/sodipodi-0.dtd"
   xmlns:inkscape="http://www.inkscape.org/namespaces/inkscape"
   width="320"
   height="320"
   id="svg2"
   sodipodi:version="0.32"
   inkscape:version="0.47 r22583"
   version="1.0"
   sodipodi:docname="MainAtom.svg"
   inkscape:output_extension="org.inkscape.output.svg.inkscape"
   inkscape:export-filename="/home/aclark/CRK3/MMTk/images/msk/MainAtom.png"
   inkscape:export-xdpi="9"
   inkscape:export-ydpi="9">
  <defs
     id="defs4">
    <inkscape:perspective
       sodipodi:type="inkscape:persp3d"
       inkscape:vp_x="0 : 160 : 1"
       inkscape:vp_y="0 : 1000 : 0"
       inkscape:vp_z="320 : 160 : 1"
       inkscape:persp3d-origin="160 : 106.66667 : 1"
       id="perspective2848" />
  </defs>
  <sodipodi:namedview
     id="base"
     pagecolor="#ffffff"
     bordercolor="#666666"
     borderopacity="1.0"
     gridtolerance="10000"
     guidetolerance="10"
     objecttolerance="10"
     inkscape:pageopacity="0.0"
     inkscape:pageshadow="2"
     inkscape:zoom="1.4"
     inkscape:cx="48.145029"
     inkscape:cy="158.28825"
     inkscape:document-units="px"
     inkscape:current-layer="layer1"
     width="320px"
     height="320px"
     showborder="true"
     inkscape:window-width="793"
     inkscape:window-height="842"
     inkscape:window-x="597"
     inkscape:window-y="53"
     showgrid="true"
     inkscape:window-maximized="0" />
  <metadata
     id="metadata7">
    <rdf:RDF>
      <cc:Work
         rdf:about="">
        <dc:format>image/svg+xml</dc:format>
        <dc:type
           rdf:resource="http://purl.org/dc/dcmitype/StillImage" />
      </cc:Work>
    </rdf:RDF>
  </metadata>
  <g
     inkscape:label="Layer 1"
     inkscape:groupmode="layer"
     id="layer1">
    <path
       sodipodi:type="arc"
       style="fill:#ffffff;fill-opacity:1;stroke:#050404;stroke-width:0.99991798;stroke-linecap:round;stroke-linejoin:round;stroke-miterlimit:4;stroke-dasharray:none;stroke-opacity:1"
       id="path2173"
       sodipodi:cx="80"
       sodipodi:cy="59.285713"
       sodipodi:rx="9.2857141"
       sodipodi:ry="8.5714283"
       d="M 89.285714 59.285713 A 9.2857141 8.5714283 0 1 1  70.714286,59.285713 A 9.2857141 8.5714283 0 1 1  89.285714 59.285713 z"
       transform="matrix(3.9083767,0,0,4.4541355,-191.02317,-104.15694)" />
    <path
       sodipodi:type="arc"
       style="fill:#000000;fill-opacity:1;stroke:none;stroke-width:1;stroke-linecap:round;stroke-linejoin:round;stroke-miterlimit:4;stroke-dasharray:none;stroke-opacity:1"
       id="path3146"
       sodipodi:cx="80"
       sodipodi:cy="59.285713"
       sodipodi:rx="9.2857141"
       sodipodi:ry="8.5714283"
       d="M 89.285714 59.285713 A 9.2857141 8.5714283 0 1 1  70.714286,59.285713 A 9.2857141 8.5714283 0 1 1  89.285714 59.285713 z"
       transform="matrix(4.1274211,0,0,4.7037667,-170.63132,-160.28246)" />
    <path
       sodipodi:type="arc"
       style="fill:#ffffff;fill-opacity:1;stroke:#050404;stroke-width:1;stroke-linecap:round;stroke-linejoin:round;stroke-miterlimit:4;stroke-dasharray:none;stroke-opacity:1"
       id="path3148"
       sodipodi:cx="80"
       sodipodi:cy="59.285713"
       sodipodi:rx="9.2857141"
       sodipodi:ry="8.5714283"
       d="M 89.285714 59.285713 A 9.2857141 8.5714283 0 1 1  70.714286,59.285713 A 9.2857141 8.5714283 0 1 1  89.285714 59.285713 z"
       transform="matrix(3.9083767,0,0,4.4541355,-123.67417,-89.452119)" />
    <path
       sodipodi:type="arc"
       style="fill:#000000;fill-opacity:1;stroke:none;stroke-width:1;stroke-linecap:round;stroke-linejoin:round;stroke-miterlimit:4;stroke-dasharray:none;stroke-opacity:1"
       id="path3150"
       sodipodi:cx="80"
       sodipodi:cy="59.285713"
       sodipodi:rx="9.2857141"
       sodipodi:ry="8.5714283"
       d="M 89.285714 59.285713 A 9.2857141 8.5714283 0 1 1  70.714286,59.285713 A 9.2857141 8.5714283 0 1 1  89.285714 59.285713 z"
       transform="matrix(4.1274211,0,0,4.7037667,-189.79433,-79.64646)" />
    <path
       sodipodi:type="arc"
       style="fill:none;fill-opacity:1;stroke:#7b7777;stroke-width:7.5817451;stroke-linecap:round;stroke-linejoin:round;stroke-miterlimit:4;stroke-dasharray:none;stroke-opacity:1"
       id="path3152"
       sodipodi:cx="164.28572"
       sodipodi:cy="173.57143"
       sodipodi:rx="85.714287"
       sodipodi:ry="157.14285"
       d="M 250.00001 173.57143 A 85.714287 157.14285 0 1 1  78.571434,173.57143 A 85.714287 157.14285 0 1 1  250.00001 173.57143 z"
       transform="matrix(0.5559432,-0.9629219,0.8671851,0.5006696,-82.679852,232.98137)" />
    <path
       sodipodi:type="arc"
       style="fill:none;fill-opacity:1;stroke:#7b7777;stroke-width:7.58174519;stroke-linecap:round;stroke-linejoin:round;stroke-miterlimit:4;stroke-dasharray:none;stroke-opacity:1"
       id="path3160"
       sodipodi:cx="164.28572"
       sodipodi:cy="173.57143"
       sodipodi:rx="85.714287"
       sodipodi:ry="157.14285"
       d="M 250.00001 173.57143 A 85.714287 157.14285 0 1 1  78.571434,173.57143 A 85.714287 157.14285 0 1 1  250.00001 173.57143 z"
       transform="matrix(-0.5559432,-0.962922,0.8671851,-0.5006694,98.56249,410.307)" />
    <path
       sodipodi:type="arc"
       style="fill:#000000;fill-opacity:1;stroke:none;stroke-width:1;stroke-linecap:round;stroke-linejoin:round;stroke-miterlimit:4;stroke-dasharray:none;stroke-opacity:1"
       id="path3166"
       sodipodi:cx="80"
       sodipodi:cy="59.285713"
       sodipodi:rx="9.2857141"
       sodipodi:ry="8.5714283"
       d="M 89.285714 59.285713 A 9.2857141 8.5714283 0 1 1  70.714286,59.285713 A 9.2857141 8.5714283 0 1 1  89.285714 59.285713 z"
       transform="matrix(1.1659548,0,0,1.3287666,177.55034,-16.166303)" />
    <path
       sodipodi:type="arc"
       style="fill:#000000;fill-opacity:1;stroke:none;stroke-width:1;stroke-linecap:round;stroke-linejoin:round;stroke-miterlimit:4;stroke-dasharray:none;stroke-opacity:1"
       id="path3168"
       sodipodi:cx="80"
       sodipodi:cy="59.285713"
       sodipodi:rx="9.2857141"
       sodipodi:ry="8.5714283"
       d="M 89.285714 59.285713 A 9.2857141 8.5714283 0 1 1  70.714286,59.285713 A 9.2857141 8.5714283 0 1 1  89.285714 59.285713 z"
       transform="matrix(1.1659548,0,0,1.3287666,147.55034,143.8337)" />
  </g>
</svg>
