<?xml version="1.0" encoding="UTF-8" standalone="no"?>
<!-- Created with Inkscape (http://www.inkscape.org/) -->

<svg
   xmlns:dc="http://purl.org/dc/elements/1.1/"
   xmlns:cc="http://creativecommons.org/ns#"
   xmlns:rdf="http://www.w3.org/1999/02/22-rdf-syntax-ns#"
   xmlns:svg="http://www.w3.org/2000/svg"
   xmlns="http://www.w3.org/2000/svg"
   xmlns:xlink="http://www.w3.org/1999/xlink"
   xmlns:sodipodi="http://sodipodi.sourceforge.net/DTD/sodipodi-0.dtd"
   xmlns:inkscape="http://www.inkscape.org/namespaces/inkscape"
   width="320"
   height="320"
   id="svg2"
   sodipodi:version="0.32"
   inkscape:version="0.91 r"
   version="1.0"
   sodipodi:docname="MainZoomFit.svg"
   inkscape:output_extension="org.inkscape.output.svg.inkscape"
   inkscape:export-filename="C:\work\eclipse\MMDS\scratch\msk\MainZoomFit.png"
   inkscape:export-xdpi="9"
   inkscape:export-ydpi="9">
  <defs
     id="defs4">
    <inkscape:perspective
       sodipodi:type="inkscape:persp3d"
       inkscape:vp_x="0 : 160 : 1"
       inkscape:vp_y="0 : 1000 : 0"
       inkscape:vp_z="320 : 160 : 1"
       inkscape:persp3d-origin="160 : 106.66667 : 1"
       id="perspective60" />
    <pattern
       patternUnits="userSpaceOnUse"
       width="30"
       height="33"
       patternTransform="translate(0,0)"
       id="pattern5043">
      <rect
         id="rect5041"
         y="0"
         x="0"
         height="33"
         width="30"
         style="fill:none;stroke:none;stroke-linecap:round" />
      <path
         id="path5039"
         d="M 21.5,31.5 L 31.5,21.5"
         style="fill:none;fill-rule:evenodd;stroke:#000000;stroke-width:3;stroke-linecap:round;stroke-linejoin:miter;stroke-miterlimit:4;stroke-dasharray:none;stroke-opacity:1" />
      <path
         id="path5037"
         d="M 11.5,31.5 L 31.5,11.5"
         style="fill:none;fill-rule:evenodd;stroke:#000000;stroke-width:3;stroke-linecap:round;stroke-linejoin:miter;stroke-miterlimit:4;stroke-dasharray:none;stroke-opacity:1" />
      <path
         id="path5035"
         d="M 1.5,31.5 L 31.5,1.5"
         style="fill:none;fill-rule:evenodd;stroke:#000000;stroke-width:3;stroke-linecap:round;stroke-linejoin:miter;stroke-miterlimit:4;stroke-dasharray:none;stroke-opacity:1" />
      <path
         id="path5033"
         d="M 1.5,21.5 L 21.5,1.5"
         style="fill:none;fill-rule:evenodd;stroke:#000000;stroke-width:3;stroke-linecap:round;stroke-linejoin:miter;stroke-miterlimit:4;stroke-dasharray:none;stroke-opacity:1" />
    </pattern>
    <pattern
       patternUnits="userSpaceOnUse"
       width="30"
       height="33"
       patternTransform="translate(18.5,-71.5)"
       id="pattern5062">
      <path
         id="path5060"
         d="M 1.5,21.5 L 21.5,1.5"
         style="fill:none;fill-rule:evenodd;stroke:#000000;stroke-width:3;stroke-linecap:round;stroke-linejoin:miter;stroke-miterlimit:4;stroke-dasharray:none;stroke-opacity:1" />
      <path
         id="path5058"
         d="M 1.5,31.5 L 31.5,1.5"
         style="fill:none;fill-rule:evenodd;stroke:#000000;stroke-width:3;stroke-linecap:round;stroke-linejoin:miter;stroke-miterlimit:4;stroke-dasharray:none;stroke-opacity:1" />
      <path
         id="path5056"
         d="M 11.5,31.5 L 31.5,11.5"
         style="fill:none;fill-rule:evenodd;stroke:#000000;stroke-width:3;stroke-linecap:round;stroke-linejoin:miter;stroke-miterlimit:4;stroke-dasharray:none;stroke-opacity:1" />
      <path
         id="path5054"
         d="M 21.5,31.5 L 31.5,21.5"
         style="fill:none;fill-rule:evenodd;stroke:#000000;stroke-width:3;stroke-linecap:round;stroke-linejoin:miter;stroke-miterlimit:4;stroke-dasharray:none;stroke-opacity:1" />
      <rect
         id="rect5052"
         y="0"
         x="0"
         height="33"
         width="30"
         style="fill:none;stroke:none;stroke-linecap:round" />
      <rect
         id="rect5050"
         y="0"
         x="0"
         height="33"
         width="30"
         style="fill:none;stroke:none" />
      <path
         id="path5000"
         d="M 1.5,11.5 L 11.5,1.5"
         style="fill:none;fill-rule:evenodd;stroke:#000000;stroke-width:3;stroke-linecap:round;stroke-linejoin:miter;stroke-miterlimit:4;stroke-dasharray:none;stroke-opacity:1" />
      <rect
         id="rect5030"
         y="0"
         x="0"
         height="33"
         width="30"
         style="fill:none;stroke:none" />
    </pattern>
  </defs>
  <sodipodi:namedview
     id="base"
     pagecolor="#ffffff"
     bordercolor="#666666"
     borderopacity="1.0"
     gridtolerance="10000"
     guidetolerance="10"
     objecttolerance="10"
     inkscape:pageopacity="0.0"
     inkscape:pageshadow="2"
     inkscape:zoom="1.4"
     inkscape:cx="282.47425"
     inkscape:cy="140.55244"
     inkscape:document-units="px"
     inkscape:current-layer="layer1"
     width="320px"
     height="320px"
     showborder="true"
     inkscape:window-width="1478"
     inkscape:window-height="842"
     inkscape:window-x="166"
     inkscape:window-y="104"
     showgrid="true"
     inkscape:window-maximized="0" />
  <metadata
     id="metadata7">
    <rdf:RDF>
      <cc:Work
         rdf:about="">
        <dc:format>image/svg+xml</dc:format>
        <dc:type
           rdf:resource="http://purl.org/dc/dcmitype/StillImage" />
        <dc:title />
      </cc:Work>
    </rdf:RDF>
  </metadata>
  <g
     inkscape:label="Layer 1"
     inkscape:groupmode="layer"
     id="layer1">
    <g
       transform="translate(62.703026,241.98783)"
       id="g3444">
      <g
         transform="scale(5.859375e-3,-5.859375e-3)"
         id="g3446">
        <use
           xlink:href="#char51"
           x="0"
           id="use3448"
           style="fill:#000000"
           y="0"
           width="320"
           height="320" />
      </g>
    </g>
    <g
       transform="translate(92.31631,241.98783)"
       id="g3450">
      <g
         transform="scale(5.859375e-3,-5.859375e-3)"
         id="g3452">
        <use
           xlink:href="#char46"
           x="0"
           id="use3454"
           style="fill:#000000"
           y="0"
           width="320"
           height="320" />
      </g>
    </g>
    <g
       transform="translate(62.081933,211.98783)"
       id="g3456">
      <g
         transform="scale(5.859375e-3,-5.859375e-3)"
         id="g3458">
        <use
           xlink:href="#char47"
           x="0"
           id="use3460"
           style="fill:#000000"
           y="0"
           width="320"
           height="320" />
      </g>
    </g>
    <g
       transform="translate(62.081933,271.98783)"
       id="g3462">
      <g
         transform="scale(5.859375e-3,-5.859375e-3)"
         id="g3464">
        <use
           xlink:href="#char47"
           x="0"
           id="use3466"
           style="fill:#000000"
           y="0"
           width="320"
           height="320" />
      </g>
    </g>
    <g
       transform="translate(243.63564,271.98783)"
       id="g3468">
      <g
         transform="scale(5.859375e-3,-5.859375e-3)"
         id="g3470">
        <use
           xlink:href="#char38"
           x="0"
           id="use3472"
           style="fill:#000000"
           y="0"
           width="320"
           height="320" />
        <use
           xlink:href="#char69"
           x="1227"
           id="use3474"
           style="fill:#000000"
           y="0"
           width="320"
           height="320" />
      </g>
    </g>
    <g
       transform="translate(208.2958,247.96859)"
       id="g3476">
      <g
         transform="scale(5.859375e-3,-5.859375e-3)"
         id="g3478">
        <use
           xlink:href="#char40"
           x="0"
           id="use3480"
           style="fill:#000000"
           y="0"
           width="320"
           height="320" />
      </g>
    </g>
    <g
       transform="translate(215.2958,204.00707)"
       id="g3482">
      <g
         transform="scale(5.859375e-3,-5.859375e-3)"
         id="g3484">
        <use
           xlink:href="#char40"
           x="0"
           id="use3486"
           style="fill:#000000"
           y="0"
           width="320"
           height="320" />
      </g>
    </g>
    <g
       transform="translate(275.2958,204.00707)"
       id="g3488">
      <g
         transform="scale(5.859375e-3,-5.859375e-3)"
         id="g3490">
        <use
           xlink:href="#char40"
           x="0"
           id="use3492"
           style="fill:#000000"
           y="0"
           width="320"
           height="320" />
      </g>
    </g>
    <g
       transform="translate(283.2958,243.96859)"
       id="g3494">
      <g
         transform="scale(5.859375e-3,-5.859375e-3)"
         id="g3496">
        <use
           xlink:href="#char40"
           x="0"
           id="use3498"
           style="fill:#000000"
           y="0"
           width="320"
           height="320" />
      </g>
    </g>
    <g
       transform="translate(102.68629,241.50525)"
       id="g3500">
      <g
         transform="scale(5.859375e-3,-5.859375e-3)"
         id="g3502">
        <use
           xlink:href="#char40"
           x="0"
           id="use3504"
           style="fill:#000000"
           y="0"
           width="320"
           height="320" />
      </g>
    </g>
    <g
       transform="translate(112.65748,242.7117)"
       id="g3506">
      <g
         transform="scale(2.9296875e-3,-2.9296875e-3)"
         id="g3508">
        <use
           xlink:href="#char18"
           x="0"
           id="use3510"
           style="fill:#000000"
           y="0"
           width="320"
           height="320" />
      </g>
    </g>
    <path
       sodipodi:type="arc"
       style="fill:#dddddd;fill-opacity:0.5;stroke:#000000;stroke-width:10.00008255000000000;stroke-linecap:round;stroke-linejoin:round;stroke-miterlimit:4;stroke-dasharray:none;stroke-opacity:1"
       id="path4971"
       sodipodi:cx="157.5"
       sodipodi:cy="158.92857"
       sodipodi:rx="148.21428"
       sodipodi:ry="147.5"
       d="M 305.71428 158.92857 A 148.21428 147.5 0 1 1  9.2857208,158.92857 A 148.21428 147.5 0 1 1  305.71428 158.92857 z"
       transform="matrix(0.8709386,0,0,0.8950109,23.61288,16.185766)" />
    <g
       style="font-style:normal;font-weight:normal;font-size:10.44176006px;font-family:'Bitstream Vera Sans';fill:#000000;fill-opacity:1;stroke:none;stroke-width:1px;stroke-linecap:butt;stroke-linejoin:miter;stroke-opacity:1"
       id="text4835">
      <path
         d="m 70.985713,183.23596 11.216734,0 0,-38.71472 L 70,146.96852 l 0,-6.25418 12.134467,-2.44728 6.866001,0 0,44.9689 11.216732,0 0,5.77832 -29.231487,0 0,-5.77832 z"
         style="font-size:69.61173248px"
         id="path4188" />
      <path
         d="m 128.80288,142.78774 q -5.30246,0 -7.98768,5.23448 -2.65123,5.20048 -2.65123,15.66943 0,10.43497 2.65123,15.66944 2.68522,5.20049 7.98768,5.20049 5.33644,0 7.98767,-5.20049 2.68522,-5.23447 2.68522,-15.66944 0,-10.46895 -2.68522,-15.66943 -2.65123,-5.23448 -7.98767,-5.23448 z m 0,-5.43842 q 8.53151,0 13.01821,6.76404 4.52068,6.73004 4.52068,19.57829 0,12.81427 -4.52068,19.5783 Q 137.33439,190 128.80288,190 q -8.53152,0 -13.0522,-6.73005 -4.4867,-6.76403 -4.4867,-19.5783 0,-12.84825 4.4867,-19.57829 4.52068,-6.76404 13.0522,-6.76404 z"
         style="font-size:69.61173248px"
         id="path4190" />
      <path
         d="m 173.12597,142.78774 q -5.30246,0 -7.98767,5.23448 -2.65123,5.20048 -2.65123,15.66943 0,10.43497 2.65123,15.66944 2.68521,5.20049 7.98767,5.20049 5.33645,0 7.98768,-5.20049 2.68521,-5.23447 2.68521,-15.66944 0,-10.46895 -2.68521,-15.66943 -2.65123,-5.23448 -7.98768,-5.23448 z m 0,-5.43842 q 8.53152,0 13.01821,6.76404 4.52068,6.73004 4.52068,19.57829 0,12.81427 -4.52068,19.5783 Q 181.65749,190 173.12597,190 q -8.53152,0 -13.0522,-6.73005 -4.48669,-6.76403 -4.48669,-19.5783 0,-12.84825 4.48669,-19.57829 4.52068,-6.76404 13.0522,-6.76404 z"
         style="font-size:69.61173248px"
         id="path4192" />
      <path
         d="m 245.93277,166.68278 q -2.95713,0 -4.65664,2.51527 -1.66551,2.51527 -1.66551,7.00196 0,4.41872 1.66551,6.96797 1.69951,2.51527 4.65664,2.51527 2.88916,0 4.55468,-2.51527 1.6995,-2.54925 1.6995,-6.96797 0,-4.4527 -1.6995,-6.96797 -1.66552,-2.54926 -4.55468,-2.54926 z m 0,-4.31674 q 5.37044,0 8.53152,3.73891 3.16108,3.73891 3.16108,10.09506 0,6.35615 -3.19507,10.09506 Q 251.26922,190 245.93277,190 q -5.43841,0 -8.59949,-3.70493 -3.16108,-3.73891 -3.16108,-10.09506 0,-6.39014 3.16108,-10.09506 3.19507,-3.73891 8.59949,-3.73891 z m -35.07778,-20.69997 q -2.92315,0 -4.62266,2.54926 -1.66551,2.51526 -1.66551,6.93398 0,4.48669 1.66551,7.00196 1.66552,2.51527 4.62266,2.51527 2.95714,0 4.62265,-2.51527 1.69951,-2.51527 1.69951,-7.00196 0,-4.38473 -1.69951,-6.93398 -1.6995,-2.54926 -4.62265,-2.54926 z m 30.69306,-4.31675 5.43842,0 L 215.23971,190 l -5.43842,0 31.74676,-52.65068 z m -30.69306,0 q 5.37043,0 8.5655,3.73892 3.19507,3.70492 3.19507,10.06107 0,6.42413 -3.19507,10.12905 -3.16108,3.70492 -8.5655,3.70492 -5.40443,0 -8.56551,-3.70492 -3.12709,-3.73891 -3.12709,-10.12905 0,-6.32216 3.16108,-10.06107 3.16108,-3.73892 8.53152,-3.73892 z"
         style="font-size:69.61173248px"
         id="path4194" />
    </g>
    <path
       sodipodi:type="arc"
       style="fill:none;fill-opacity:1;stroke:#000000;stroke-width:10;stroke-linecap:round;stroke-linejoin:round;stroke-miterlimit:4;stroke-dasharray:none;stroke-opacity:1"
       id="path4967"
       sodipodi:cx="157.5"
       sodipodi:cy="158.92857"
       sodipodi:rx="148.21428"
       sodipodi:ry="147.5"
       d="M 305.71428 158.92857 A 148.21428 147.5 0 1 1  9.2857208,158.92857 A 148.21428 147.5 0 1 1  305.71428 158.92857 z"
       transform="matrix(0.981039,0,0,1.0003176,5.8435029,-5.0472616e-2)" />
  </g>
</svg>
