<?xml version="1.0" encoding="UTF-8" standalone="no"?>
<!-- Created with Inkscape (http://www.inkscape.org/) -->

<svg
   xmlns:dc="http://purl.org/dc/elements/1.1/"
   xmlns:cc="http://creativecommons.org/ns#"
   xmlns:rdf="http://www.w3.org/1999/02/22-rdf-syntax-ns#"
   xmlns:svg="http://www.w3.org/2000/svg"
   xmlns="http://www.w3.org/2000/svg"
   xmlns:xlink="http://www.w3.org/1999/xlink"
   xmlns:sodipodi="http://sodipodi.sourceforge.net/DTD/sodipodi-0.dtd"
   xmlns:inkscape="http://www.inkscape.org/namespaces/inkscape"
   width="320"
   height="320"
   id="svg2"
   sodipodi:version="0.32"
   inkscape:version="0.47 r22583"
   version="1.0"
   sodipodi:docname="MainZoomIn.svg"
   inkscape:output_extension="org.inkscape.output.svg.inkscape"
   inkscape:export-filename="C:\work\eclipse\MMDS\scratch\msk\MainZoomIn.png"
   inkscape:export-xdpi="12.375"
   inkscape:export-ydpi="12.375">
  <defs
     id="defs4">
    <inkscape:perspective
       sodipodi:type="inkscape:persp3d"
       inkscape:vp_x="0 : 160 : 1"
       inkscape:vp_y="0 : 1000 : 0"
       inkscape:vp_z="320 : 160 : 1"
       inkscape:persp3d-origin="160 : 106.66667 : 1"
       id="perspective3766" />
  </defs>
  <sodipodi:namedview
     id="base"
     pagecolor="#ffffff"
     bordercolor="#666666"
     borderopacity="1.0"
     gridtolerance="10000"
     guidetolerance="10"
     objecttolerance="10"
     inkscape:pageopacity="0.0"
     inkscape:pageshadow="2"
     inkscape:zoom="1.4"
     inkscape:cx="184.61711"
     inkscape:cy="128.35938"
     inkscape:document-units="px"
     inkscape:current-layer="layer1"
     width="320px"
     height="320px"
     showborder="true"
     inkscape:window-width="1440"
     inkscape:window-height="838"
     inkscape:window-x="-8"
     inkscape:window-y="-8"
     showgrid="true"
     inkscape:window-maximized="1">
    <inkscape:grid
       type="xygrid"
       id="grid3768" />
  </sodipodi:namedview>
  <metadata
     id="metadata7">
    <rdf:RDF>
      <cc:Work
         rdf:about="">
        <dc:format>image/svg+xml</dc:format>
        <dc:type
           rdf:resource="http://purl.org/dc/dcmitype/StillImage" />
        <dc:title />
      </cc:Work>
    </rdf:RDF>
  </metadata>
  <g
     inkscape:label="Layer 1"
     inkscape:groupmode="layer"
     id="layer1">
    <g
       transform="translate(62.703026,241.98783)"
       id="g3444"
       style="stroke-width:4.791;stroke-miterlimit:4;stroke-dasharray:none">
      <g
         transform="scale(5.859375e-3,-5.859375e-3)"
         id="g3446"
         style="stroke-width:817.664;stroke-miterlimit:4;stroke-dasharray:none">
        <use
           xlink:href="#char51"
           x="0"
           id="use3448"
           style="fill:#000000;stroke-width:817.664;stroke-miterlimit:4;stroke-dasharray:none"
           y="0"
           width="320"
           height="320" />
      </g>
    </g>
    <g
       transform="translate(92.31631,241.98783)"
       id="g3450"
       style="stroke-width:4.791;stroke-miterlimit:4;stroke-dasharray:none">
      <g
         transform="scale(5.859375e-3,-5.859375e-3)"
         id="g3452"
         style="stroke-width:817.664;stroke-miterlimit:4;stroke-dasharray:none">
        <use
           xlink:href="#char46"
           x="0"
           id="use3454"
           style="fill:#000000;stroke-width:817.664;stroke-miterlimit:4;stroke-dasharray:none"
           y="0"
           width="320"
           height="320" />
      </g>
    </g>
    <g
       transform="translate(62.081933,211.98783)"
       id="g3456"
       style="stroke-width:4.791;stroke-miterlimit:4;stroke-dasharray:none">
      <g
         transform="scale(5.859375e-3,-5.859375e-3)"
         id="g3458"
         style="stroke-width:817.664;stroke-miterlimit:4;stroke-dasharray:none">
        <use
           xlink:href="#char47"
           x="0"
           id="use3460"
           style="fill:#000000;stroke-width:817.664;stroke-miterlimit:4;stroke-dasharray:none"
           y="0"
           width="320"
           height="320" />
      </g>
    </g>
    <g
       transform="translate(62.081933,271.98783)"
       id="g3462"
       style="stroke-width:4.791;stroke-miterlimit:4;stroke-dasharray:none">
      <g
         transform="scale(5.859375e-3,-5.859375e-3)"
         id="g3464"
         style="stroke-width:817.664;stroke-miterlimit:4;stroke-dasharray:none">
        <use
           xlink:href="#char47"
           x="0"
           id="use3466"
           style="fill:#000000;stroke-width:817.664;stroke-miterlimit:4;stroke-dasharray:none"
           y="0"
           width="320"
           height="320" />
      </g>
    </g>
    <g
       transform="translate(243.63564,271.98783)"
       id="g3468"
       style="stroke-width:4.791;stroke-miterlimit:4;stroke-dasharray:none">
      <g
         transform="scale(5.859375e-3,-5.859375e-3)"
         id="g3470"
         style="stroke-width:817.664;stroke-miterlimit:4;stroke-dasharray:none">
        <use
           xlink:href="#char38"
           x="0"
           id="use3472"
           style="fill:#000000;stroke-width:817.664;stroke-miterlimit:4;stroke-dasharray:none"
           y="0"
           width="320"
           height="320" />
        <use
           xlink:href="#char69"
           x="1227"
           id="use3474"
           style="fill:#000000;stroke-width:817.664;stroke-miterlimit:4;stroke-dasharray:none"
           y="0"
           width="320"
           height="320" />
      </g>
    </g>
    <g
       transform="translate(208.2958,247.96859)"
       id="g3476"
       style="stroke-width:4.791;stroke-miterlimit:4;stroke-dasharray:none">
      <g
         transform="scale(5.859375e-3,-5.859375e-3)"
         id="g3478"
         style="stroke-width:817.664;stroke-miterlimit:4;stroke-dasharray:none">
        <use
           xlink:href="#char40"
           x="0"
           id="use3480"
           style="fill:#000000;stroke-width:817.664;stroke-miterlimit:4;stroke-dasharray:none"
           y="0"
           width="320"
           height="320" />
      </g>
    </g>
    <g
       transform="translate(215.2958,204.00707)"
       id="g3482"
       style="stroke-width:4.791;stroke-miterlimit:4;stroke-dasharray:none">
      <g
         transform="scale(5.859375e-3,-5.859375e-3)"
         id="g3484"
         style="stroke-width:817.664;stroke-miterlimit:4;stroke-dasharray:none">
        <use
           xlink:href="#char40"
           x="0"
           id="use3486"
           style="fill:#000000;stroke-width:817.664;stroke-miterlimit:4;stroke-dasharray:none"
           y="0"
           width="320"
           height="320" />
      </g>
    </g>
    <g
       transform="translate(275.2958,204.00707)"
       id="g3488"
       style="stroke-width:4.791;stroke-miterlimit:4;stroke-dasharray:none">
      <g
         transform="scale(5.859375e-3,-5.859375e-3)"
         id="g3490"
         style="stroke-width:817.664;stroke-miterlimit:4;stroke-dasharray:none">
        <use
           xlink:href="#char40"
           x="0"
           id="use3492"
           style="fill:#000000;stroke-width:817.664;stroke-miterlimit:4;stroke-dasharray:none"
           y="0"
           width="320"
           height="320" />
      </g>
    </g>
    <g
       transform="translate(283.2958,243.96859)"
       id="g3494"
       style="stroke-width:4.791;stroke-miterlimit:4;stroke-dasharray:none">
      <g
         transform="scale(5.859375e-3,-5.859375e-3)"
         id="g3496"
         style="stroke-width:817.664;stroke-miterlimit:4;stroke-dasharray:none">
        <use
           xlink:href="#char40"
           x="0"
           id="use3498"
           style="fill:#000000;stroke-width:817.664;stroke-miterlimit:4;stroke-dasharray:none"
           y="0"
           width="320"
           height="320" />
      </g>
    </g>
    <g
       transform="translate(102.68629,241.50525)"
       id="g3500"
       style="stroke-width:4.791;stroke-miterlimit:4;stroke-dasharray:none">
      <g
         transform="scale(5.859375e-3,-5.859375e-3)"
         id="g3502"
         style="stroke-width:817.664;stroke-miterlimit:4;stroke-dasharray:none">
        <use
           xlink:href="#char40"
           x="0"
           id="use3504"
           style="fill:#000000;stroke-width:817.664;stroke-miterlimit:4;stroke-dasharray:none"
           y="0"
           width="320"
           height="320" />
      </g>
    </g>
    <g
       transform="translate(112.65748,242.7117)"
       id="g3506"
       style="stroke-width:4.791;stroke-miterlimit:4;stroke-dasharray:none">
      <g
         transform="scale(2.9296875e-3,-2.9296875e-3)"
         id="g3508"
         style="stroke-width:1635.328;stroke-miterlimit:4;stroke-dasharray:none">
        <use
           xlink:href="#char18"
           x="0"
           id="use3510"
           style="fill:#000000;stroke-width:1635.328;stroke-miterlimit:4;stroke-dasharray:none"
           y="0"
           width="320"
           height="320" />
      </g>
    </g>
    <path
       style="font-size:medium;font-style:normal;font-variant:normal;font-weight:normal;font-stretch:normal;text-indent:0;text-align:start;text-decoration:none;line-height:normal;letter-spacing:normal;word-spacing:normal;text-transform:none;direction:ltr;block-progression:tb;writing-mode:lr-tb;text-anchor:start;color:#000000;fill:#ffffff;fill-opacity:1;stroke:#000000;stroke-width:4.791;stroke-miterlimit:4;stroke-opacity:1;stroke-dasharray:none;marker:none;visibility:visible;display:inline;overflow:visible;enable-background:accumulate;font-family:Bitstream Vera Sans;-inkscape-font-specification:Bitstream Vera Sans"
       d="m 159.9337,7.3957969 c -1.22836,0.017783 -2.44251,0.5361707 -3.31003,1.4132395 L 127.99649,37.675208 c -1.32116,1.336065 -1.7593,3.488685 -1.0437,5.231992 0.71562,1.743309 2.54225,2.973143 4.41336,2.976825 l 23.85599,0 0,32.594718 c -19.03094,1.043649 -36.29578,8.792862 -49.59062,20.927974 L 81.596615,75.50192 98.593999,58.603182 c 1.337912,-1.329214 1.784181,-3.508978 1.073521,-5.262062 -0.710656,-1.753085 -2.535151,-2.973199 -4.413356,-2.976825 l -40.46571,-0.270619 c -0.158907,-0.0079 -0.318211,-0.0079 -0.477119,0 -2.335535,0.221972 -4.319354,2.415492 -4.323896,4.780958 l -0.298201,40.803535 c -0.01994,1.896771 1.188724,3.743885 2.922358,4.480271 1.733635,0.73639 3.886482,0.31711 5.218495,-1.022343 L 74.797659,82.237359 98.922018,106.26244 c -11.630556,13.42652 -19.014244,30.73454 -19.949562,49.73401 l -33.487834,0 0,-24.05515 c 9.54e-4,-2.56989 -2.372929,-4.89108 -4.920297,-4.81103 -1.198278,0.0406 -2.374437,0.55669 -3.220558,1.41324 L 8.7165889,157.40968 c -1.7614043,1.78077 -1.7614043,5.01481 0,6.79558 l 28.6271781,28.86618 c 1.325004,1.33218 3.4598,1.77398 5.188676,1.0524 1.728876,-0.72158 2.948527,-2.56345 2.952179,-4.4502 l 0,-24.05515 33.607114,0 c 1.240981,18.80865 8.766006,35.88989 20.486319,49.10257 L 76.169379,238.65594 59.171991,221.75718 c -1.335156,-1.31903 -3.467046,-1.72624 -5.188676,-0.99227 -1.72163,0.73398 -2.930541,2.56544 -2.922358,4.4502 l 0.26838,40.83362 c 0.01573,2.5291 2.322811,4.81236 4.830836,4.78095 l 40.465711,-0.30069 c 1.873236,-0.0154 3.680176,-1.25616 4.383526,-3.00689 0.70337,-1.75074 0.26095,-3.90631 -1.073508,-5.232 L 82.968334,245.39136 106.3472,221.48657 c 13.35681,11.91347 30.59938,19.44988 49.56079,20.32659 l 0,32.38424 -23.85597,0 c -1.87113,0.004 -3.69775,1.23352 -4.41337,2.97683 -0.71561,1.7433 -0.27746,3.89593 1.0437,5.23198 l 28.62718,28.86618 c 1.76603,1.7761 4.97329,1.7761 6.73932,0 l 28.62718,-28.86618 c 1.32117,-1.33605 1.75932,-3.48868 1.0437,-5.23198 -0.71562,-1.74331 -2.54224,-2.97314 -4.41336,-2.97683 l -23.85599,0 0,-32.50452 c 18.91988,-1.36942 36.01699,-9.38124 49.11351,-21.70975 l 23.67706,25.97954 -16.99739,16.89874 c -1.33789,1.32921 -1.78418,3.50897 -1.07351,5.26207 0.71065,1.75307 2.53515,2.97319 4.41336,2.97682 l 40.4657,0.27062 c 2.49814,0.0155 4.7852,-2.26196 4.80102,-4.78097 l 0.29821,-40.80352 c 0.009,-1.88477 -1.20074,-3.71624 -2.92237,-4.45021 -1.72162,-0.73397 -3.85353,-0.32678 -5.18866,0.99227 l -16.9974,16.89875 -23.8858,-26.19004 c 11.5936,-13.79235 18.76194,-31.49959 19.23388,-50.87663 l 34.11406,0 0,24.05514 c -0.008,1.89176 1.19113,3.72124 2.92236,4.45021 1.73125,0.72896 3.88998,0.31342 5.21849,-1.02234 l 28.62718,-28.86617 c 1.77918,-1.78291 1.77918,-5.04275 0,-6.82565 L 282.6429,125.08559 c -0.90259,-0.91262 -2.1811,-1.43496 -3.45912,-1.41325 -2.46815,0.047 -4.68191,2.32184 -4.68173,4.81103 l 0,24.05515 -34.44207,0 c -1.6396,-17.98221 -9.04936,-34.27895 -20.33723,-46.99774 l 23.40868,-24.536247 16.99739,16.898738 c 1.33515,1.319049 3.46704,1.726245 5.18867,0.992274 1.72162,-0.73397 2.93055,-2.565432 2.92236,-4.4502 L 267.97148,53.61174 c -0.0313,-2.519034 -2.33266,-4.782323 -4.83084,-4.750891 l -40.46571,0.270621 c -1.87323,0.01535 -3.68017,1.256162 -4.38354,3.006893 -0.70337,1.750731 -0.26095,3.906314 1.07352,5.231992 L 236.36229,74.269093 212.95361,98.7452 C 199.918,87.125675 183.17867,79.683488 164.76453,78.508812 l 0,-32.624787 23.85598,0 c 1.87112,-0.0037 3.69774,-1.233516 4.41336,-2.976825 0.71561,-1.743307 0.27747,-3.895927 -1.0437,-5.231992 L 163.36299,8.8090364 C 162.46736,7.9036606 161.20183,7.3821292 159.9337,7.3957969 z m -0.29821,90.1767151 c 37.68702,2.849578 62.29024,31.065418 61.69754,62.543368 -0.66052,35.07958 -25.42255,62.86092 -61.69754,62.54337 -33.68472,-0.29486 -64.464992,-23.49428 -63.576187,-62.54337 0.890095,-39.10566 27.382967,-61.739358 63.576187,-62.543368 z"
       id="path4847"
       sodipodi:nodetypes="cccsccccccscccccsccccccsccccsccccccsccccsccccccsccccsccccccsccccsccccccsccccsccccccsccccsccccccsccccsssc" />
  </g>
</svg>
