<?xml version="1.0" encoding="UTF-8" standalone="no"?>
<!-- Created with Inkscape (http://www.inkscape.org/) -->
<svg
   xmlns:dc="http://purl.org/dc/elements/1.1/"
   xmlns:cc="http://web.resource.org/cc/"
   xmlns:rdf="http://www.w3.org/1999/02/22-rdf-syntax-ns#"
   xmlns:svg="http://www.w3.org/2000/svg"
   xmlns="http://www.w3.org/2000/svg"
   xmlns:xlink="http://www.w3.org/1999/xlink"
   xmlns:sodipodi="http://sodipodi.sourceforge.net/DTD/sodipodi-0.dtd"
   xmlns:inkscape="http://www.inkscape.org/namespaces/inkscape"
   width="320"
   height="320"
   id="svg2"
   sodipodi:version="0.32"
   inkscape:version="0.45.1"
   version="1.0"
   sodipodi:docbase="/home/aclark/CRK3/MMTk/images/msk"
   sodipodi:docname="MainMove.svg"
   inkscape:output_extension="org.inkscape.output.svg.inkscape"
   inkscape:export-filename="/home/aclark/CRK3/MMTk/images/msk/MainMove.png"
   inkscape:export-xdpi="9"
   inkscape:export-ydpi="9">
  <defs
     id="defs4" />
  <sodipodi:namedview
     id="base"
     pagecolor="#ffffff"
     bordercolor="#666666"
     borderopacity="1.0"
     gridtolerance="10000"
     guidetolerance="10"
     objecttolerance="10"
     inkscape:pageopacity="0.0"
     inkscape:pageshadow="2"
     inkscape:zoom="1.4"
     inkscape:cx="198.18854"
     inkscape:cy="129.1885"
     inkscape:document-units="px"
     inkscape:current-layer="layer1"
     width="320px"
     height="320px"
     showborder="true"
     inkscape:window-width="814"
     inkscape:window-height="842"
     inkscape:window-x="166"
     inkscape:window-y="104"
     showgrid="true" />
  <metadata
     id="metadata7">
    <rdf:RDF>
      <cc:Work
         rdf:about="">
        <dc:format>image/svg+xml</dc:format>
        <dc:type
           rdf:resource="http://purl.org/dc/dcmitype/StillImage" />
      </cc:Work>
    </rdf:RDF>
  </metadata>
  <g
     inkscape:label="Layer 1"
     inkscape:groupmode="layer"
     id="layer1">
    <g
       transform="translate(62.703026,241.98783)"
       id="g3444">
      <g
         transform="scale(5.859375e-3,-5.859375e-3)"
         id="g3446">
        <use
           xlink:href="#char51"
           x="0"
           id="use3448"
           style="fill:#000000"
           y="0"
           width="320"
           height="320" />
      </g>
    </g>
    <g
       transform="translate(92.31631,241.98783)"
       id="g3450">
      <g
         transform="scale(5.859375e-3,-5.859375e-3)"
         id="g3452">
        <use
           xlink:href="#char46"
           x="0"
           id="use3454"
           style="fill:#000000"
           y="0"
           width="320"
           height="320" />
      </g>
    </g>
    <g
       transform="translate(62.081933,211.98783)"
       id="g3456">
      <g
         transform="scale(5.859375e-3,-5.859375e-3)"
         id="g3458">
        <use
           xlink:href="#char47"
           x="0"
           id="use3460"
           style="fill:#000000"
           y="0"
           width="320"
           height="320" />
      </g>
    </g>
    <g
       transform="translate(62.081933,271.98783)"
       id="g3462">
      <g
         transform="scale(5.859375e-3,-5.859375e-3)"
         id="g3464">
        <use
           xlink:href="#char47"
           x="0"
           id="use3466"
           style="fill:#000000"
           y="0"
           width="320"
           height="320" />
      </g>
    </g>
    <g
       transform="translate(243.63564,271.98783)"
       id="g3468">
      <g
         transform="scale(5.859375e-3,-5.859375e-3)"
         id="g3470">
        <use
           xlink:href="#char38"
           x="0"
           id="use3472"
           style="fill:#000000"
           y="0"
           width="320"
           height="320" />
        <use
           xlink:href="#char69"
           x="1227"
           id="use3474"
           style="fill:#000000"
           y="0"
           width="320"
           height="320" />
      </g>
    </g>
    <g
       transform="translate(208.2958,247.96859)"
       id="g3476">
      <g
         transform="scale(5.859375e-3,-5.859375e-3)"
         id="g3478">
        <use
           xlink:href="#char40"
           x="0"
           id="use3480"
           style="fill:#000000"
           y="0"
           width="320"
           height="320" />
      </g>
    </g>
    <g
       transform="translate(215.2958,204.00707)"
       id="g3482">
      <g
         transform="scale(5.859375e-3,-5.859375e-3)"
         id="g3484">
        <use
           xlink:href="#char40"
           x="0"
           id="use3486"
           style="fill:#000000"
           y="0"
           width="320"
           height="320" />
      </g>
    </g>
    <g
       transform="translate(275.2958,204.00707)"
       id="g3488">
      <g
         transform="scale(5.859375e-3,-5.859375e-3)"
         id="g3490">
        <use
           xlink:href="#char40"
           x="0"
           id="use3492"
           style="fill:#000000"
           y="0"
           width="320"
           height="320" />
      </g>
    </g>
    <g
       transform="translate(283.2958,243.96859)"
       id="g3494">
      <g
         transform="scale(5.859375e-3,-5.859375e-3)"
         id="g3496">
        <use
           xlink:href="#char40"
           x="0"
           id="use3498"
           style="fill:#000000"
           y="0"
           width="320"
           height="320" />
      </g>
    </g>
    <g
       transform="translate(102.68629,241.50525)"
       id="g3500">
      <g
         transform="scale(5.859375e-3,-5.859375e-3)"
         id="g3502">
        <use
           xlink:href="#char40"
           x="0"
           id="use3504"
           style="fill:#000000"
           y="0"
           width="320"
           height="320" />
      </g>
    </g>
    <g
       transform="translate(112.65748,242.7117)"
       id="g3506">
      <g
         transform="scale(2.9296875e-3,-2.9296875e-3)"
         id="g3508">
        <use
           xlink:href="#char18"
           x="0"
           id="use3510"
           style="fill:#000000"
           y="0"
           width="320"
           height="320" />
      </g>
    </g>
    <path
       style="fill:#ffffff;fill-rule:evenodd;stroke:#000000;stroke-width:10;stroke-linecap:butt;stroke-linejoin:round;stroke-opacity:1;stroke-miterlimit:4;stroke-dasharray:none;fill-opacity:1"
       d="M 130,130 L 70,130 L 70,100 L 10,160 L 70,220 L 70,190 L 130,190 L 130,250 L 100,250 L 160,310 L 220,250 L 190,250 L 190,190 L 250,190 L 250,220 L 310,160 L 250,100 L 250,130 L 190,130 L 190,70 L 220,70 L 160,10 L 100,70 L 130,70 L 130,130 z "
       id="path4831" />
  </g>
</svg>
