<?xml version="1.0" encoding="UTF-8" standalone="no"?>
<!-- Created with Inkscape (http://www.inkscape.org/) -->

<svg
   xmlns:dc="http://purl.org/dc/elements/1.1/"
   xmlns:cc="http://creativecommons.org/ns#"
   xmlns:rdf="http://www.w3.org/1999/02/22-rdf-syntax-ns#"
   xmlns:svg="http://www.w3.org/2000/svg"
   xmlns="http://www.w3.org/2000/svg"
   xmlns:sodipodi="http://sodipodi.sourceforge.net/DTD/sodipodi-0.dtd"
   xmlns:inkscape="http://www.inkscape.org/namespaces/inkscape"
   width="320"
   height="320"
   id="svg2"
   sodipodi:version="0.32"
   inkscape:version="0.91 r13725"
   version="1.0"
   sodipodi:docname="MoveRotP15.svg"
   inkscape:output_extension="org.inkscape.output.svg.inkscape"
   inkscape:export-filename="/home/aclark/CRK3/MMTk/images/msk/MoveRotM15.png"
   inkscape:export-xdpi="9"
   inkscape:export-ydpi="9">
  <defs
     id="defs4">
    <inkscape:perspective
       sodipodi:type="inkscape:persp3d"
       inkscape:vp_x="0 : 160 : 1"
       inkscape:vp_y="0 : 1000 : 0"
       inkscape:vp_z="320 : 160 : 1"
       inkscape:persp3d-origin="160 : 106.66667 : 1"
       id="perspective11" />
    <inkscape:perspective
       id="perspective3631"
       inkscape:persp3d-origin="0.5 : 0.33333333 : 1"
       inkscape:vp_z="1 : 0.5 : 1"
       inkscape:vp_y="0 : 1000 : 0"
       inkscape:vp_x="0 : 0.5 : 1"
       sodipodi:type="inkscape:persp3d" />
    <inkscape:perspective
       id="perspective3653"
       inkscape:persp3d-origin="0.5 : 0.33333333 : 1"
       inkscape:vp_z="1 : 0.5 : 1"
       inkscape:vp_y="0 : 1000 : 0"
       inkscape:vp_x="0 : 0.5 : 1"
       sodipodi:type="inkscape:persp3d" />
  </defs>
  <sodipodi:namedview
     id="base"
     pagecolor="#ffffff"
     bordercolor="#666666"
     borderopacity="1.0"
     gridtolerance="10000"
     guidetolerance="10"
     objecttolerance="10"
     inkscape:pageopacity="0.0"
     inkscape:pageshadow="2"
     inkscape:zoom="1.4"
     inkscape:cx="108.98279"
     inkscape:cy="152.56698"
     inkscape:document-units="px"
     inkscape:current-layer="layer1"
     width="320px"
     height="320px"
     showborder="true"
     inkscape:window-width="1857"
     inkscape:window-height="1156"
     inkscape:window-x="63"
     inkscape:window-y="0"
     showgrid="true"
     inkscape:window-maximized="1"
     showguides="false">
    <inkscape:grid
       type="xygrid"
       id="grid2849" />
  </sodipodi:namedview>
  <metadata
     id="metadata7">
    <rdf:RDF>
      <cc:Work
         rdf:about="">
        <dc:format>image/svg+xml</dc:format>
        <dc:type
           rdf:resource="http://purl.org/dc/dcmitype/StillImage" />
      </cc:Work>
    </rdf:RDF>
  </metadata>
  <g
     inkscape:label="Layer 1"
     inkscape:groupmode="layer"
     id="layer1">
    <path
       sodipodi:type="arc"
       style="fill:#ffffff;fill-opacity:0.25;stroke:#000000;stroke-width:5;stroke-miterlimit:4;stroke-opacity:1;stroke-dasharray:none"
       id="path2819"
       sodipodi:cx="125"
       sodipodi:cy="125"
       sodipodi:rx="125"
       sodipodi:ry="125"
       d="m 250,125 a 125,125 0 1 1 -250,0 125,125 0 1 1 250,0 z"
       transform="translate(36,59)" />
    <path
       style="fill:none;stroke:#000000;stroke-width:3;stroke-linecap:butt;stroke-linejoin:miter;stroke-miterlimit:4;stroke-opacity:1;stroke-dasharray:3, 9;stroke-dashoffset:0"
       d="M 288,182 38,182"
       id="path3593" />
    <path
       style="fill:none;stroke:#000000;stroke-width:2.86018682;stroke-linecap:butt;stroke-linejoin:miter;stroke-miterlimit:4;stroke-opacity:1;stroke-dasharray:2.86018677, 8.58056031;stroke-dashoffset:0"
       d="m 160,299.65434 0,-112.27312"
       id="path3593-1" />
    <path
       style="fill:none;stroke:#000000;stroke-width:1px;stroke-linecap:butt;stroke-linejoin:miter;stroke-opacity:1"
       d="M 160,180 102.14286,75.714286"
       id="path3617"
       sodipodi:nodetypes="cc" />
    <path
       style="fill:none;stroke:#000000;stroke-width:1px;stroke-linecap:butt;stroke-linejoin:miter;stroke-opacity:1"
       d="M 160,180 50,120"
       id="path3619"
       sodipodi:nodetypes="cc" />
    <path
       style="fill:#ffffff;fill-opacity:1;stroke:#000000;stroke-width:1px;stroke-linecap:butt;stroke-linejoin:miter;stroke-opacity:1"
       d="M 159.42857,181.57142 120.71429,24.285714 160,20 159.42857,181.57142 z"
       id="path3643"
       sodipodi:nodetypes="cccc" />
    <g
       id="g8177"
       transform="matrix(0.81166745,0,0,0.81166745,64.049971,-1.0275659)">
      <path
         d="m 157.48975,14.472329 0,15.230469 15.23046,0 0,4.648437 -15.23046,0 0,15.230469 -4.59375,0 0,-15.230469 -15.23047,0 0,-4.648437 15.23047,0 0,-15.230469 4.59375,0 z"
         style="font-style:normal;font-weight:normal;font-size:56px;font-family:'Bitstream Vera Sans';fill:#000000;fill-opacity:1;stroke:none"
         id="path8087"
         inkscape:connector-curvature="0" />
      <path
         d="m 188.75504,54.953622 13.12364,0 0,-45.2964508 -14.27693,2.8633398 0,-7.3174245 14.19739,-2.8633402 8.03326,0 0,52.6138757 13.12364,0 0,6.760665 -34.201,0 0,-6.760665 z"
         style="font-style:normal;font-weight:normal;font-size:81.44612122px;font-family:'Bitstream Vera Sans';fill:#000000;fill-opacity:1;stroke:none"
         id="path8089"
         inkscape:connector-curvature="0" />
      <path
         d="m 239.30095,2.3397463 31.53651,0 0,6.7606643 -24.17932,0 0,14.5553124 q 1.74982,-0.596529 3.49964,-0.874909 1.74982,-0.318149 3.49964,-0.318149 9.94215,0 15.74837,5.4483 5.80622,5.4483 5.80622,14.754156 0,9.584236 -5.9653,14.91323 -5.96529,5.289226 -16.82212,5.289226 -3.73825,0 -7.63557,-0.636298 -3.85756,-0.636298 -7.99349,-1.908894 l 0,-8.073028 q 3.57917,1.948662 7.39696,2.903109 3.81779,0.954446 8.07303,0.954446 6.87997,0 10.8966,-3.618944 4.01663,-3.618943 4.01663,-9.822847 0,-6.203904 -4.01663,-9.822848 -4.01663,-3.618944 -10.8966,-3.618944 -3.22126,0 -6.44252,0.715835 -3.18149,0.715835 -6.52205,2.227043 l 0,-29.8264607 z"
         style="font-style:normal;font-weight:normal;font-size:81.44612122px;font-family:'Bitstream Vera Sans';fill:#000000;fill-opacity:1;stroke:none"
         id="path8091"
         inkscape:connector-curvature="0" />
      <path
         d="m 302.73189,6.3961449 q -3.18149,0 -5.36876,2.2270424 -2.18728,2.1872737 -2.18728,5.3687627 0,3.141721 2.18728,5.328994 2.18727,2.147506 5.36876,2.147506 3.18149,0 5.36876,-2.147506 2.18728,-2.187273 2.18728,-5.328994 0,-3.14172 -2.22704,-5.3687627 -2.18728,-2.2270424 -5.329,-2.2270424 z m 0,-5.1301512 q 2.54519,0 4.89154,0.9942154 2.34635,0.9544467 4.0564,2.7838029 1.82936,1.7895877 2.74403,4.0563986 0.91468,2.2668114 0.91468,4.8915394 0,5.249457 -3.69848,8.90817 -3.65871,3.618944 -8.98771,3.618944 -5.36876,0 -8.94793,-3.579176 -3.57918,-3.579175 -3.57918,-8.947938 0,-5.3289941 3.65871,-9.0274752 3.65872,-3.6984811 8.94794,-3.6984811 z"
         style="font-style:normal;font-weight:normal;font-size:81.44612122px;font-family:'Bitstream Vera Sans';fill:#000000;fill-opacity:1;stroke:none"
         id="path8093"
         inkscape:connector-curvature="0" />
    </g>
  </g>
</svg>
