<?xml version="1.0" encoding="UTF-8" standalone="no"?>
<!-- Created with Inkscape (http://www.inkscape.org/) -->

<svg
   xmlns:dc="http://purl.org/dc/elements/1.1/"
   xmlns:cc="http://creativecommons.org/ns#"
   xmlns:rdf="http://www.w3.org/1999/02/22-rdf-syntax-ns#"
   xmlns:svg="http://www.w3.org/2000/svg"
   xmlns="http://www.w3.org/2000/svg"
   xmlns:sodipodi="http://sodipodi.sourceforge.net/DTD/sodipodi-0.dtd"
   xmlns:inkscape="http://www.inkscape.org/namespaces/inkscape"
   width="320"
   height="320"
   id="svg2"
   sodipodi:version="0.32"
   inkscape:version="0.91 r13725"
   version="1.0"
   sodipodi:docname="MoveRotM15.svg"
   inkscape:output_extension="org.inkscape.output.svg.inkscape"
   inkscape:export-filename="/home/aclark/CRK3/MMTk/images/msk/MoveRotM15.png"
   inkscape:export-xdpi="9"
   inkscape:export-ydpi="9">
  <defs
     id="defs4">
    <inkscape:perspective
       sodipodi:type="inkscape:persp3d"
       inkscape:vp_x="0 : 160 : 1"
       inkscape:vp_y="0 : 1000 : 0"
       inkscape:vp_z="320 : 160 : 1"
       inkscape:persp3d-origin="160 : 106.66667 : 1"
       id="perspective11" />
    <inkscape:perspective
       id="perspective3631"
       inkscape:persp3d-origin="0.5 : 0.33333333 : 1"
       inkscape:vp_z="1 : 0.5 : 1"
       inkscape:vp_y="0 : 1000 : 0"
       inkscape:vp_x="0 : 0.5 : 1"
       sodipodi:type="inkscape:persp3d" />
    <inkscape:perspective
       id="perspective3653"
       inkscape:persp3d-origin="0.5 : 0.33333333 : 1"
       inkscape:vp_z="1 : 0.5 : 1"
       inkscape:vp_y="0 : 1000 : 0"
       inkscape:vp_x="0 : 0.5 : 1"
       sodipodi:type="inkscape:persp3d" />
  </defs>
  <sodipodi:namedview
     id="base"
     pagecolor="#ffffff"
     bordercolor="#666666"
     borderopacity="1.0"
     gridtolerance="10000"
     guidetolerance="10"
     objecttolerance="10"
     inkscape:pageopacity="0.0"
     inkscape:pageshadow="2"
     inkscape:zoom="1.4"
     inkscape:cx="-133.16007"
     inkscape:cy="148.99555"
     inkscape:document-units="px"
     inkscape:current-layer="layer1"
     width="320px"
     height="320px"
     showborder="true"
     inkscape:window-width="1857"
     inkscape:window-height="1156"
     inkscape:window-x="63"
     inkscape:window-y="0"
     showgrid="true"
     inkscape:window-maximized="1">
    <inkscape:grid
       type="xygrid"
       id="grid2849" />
  </sodipodi:namedview>
  <metadata
     id="metadata7">
    <rdf:RDF>
      <cc:Work
         rdf:about="">
        <dc:format>image/svg+xml</dc:format>
        <dc:type
           rdf:resource="http://purl.org/dc/dcmitype/StillImage" />
      </cc:Work>
    </rdf:RDF>
  </metadata>
  <g
     inkscape:label="Layer 1"
     inkscape:groupmode="layer"
     id="layer1">
    <path
       sodipodi:type="arc"
       style="fill:#ffffff;fill-opacity:0.25;stroke:#000000;stroke-width:5;stroke-miterlimit:4;stroke-opacity:1;stroke-dasharray:none"
       id="path2819"
       sodipodi:cx="125"
       sodipodi:cy="125"
       sodipodi:rx="125"
       sodipodi:ry="125"
       d="m 250,125 a 125,125 0 1 1 -250,0 125,125 0 1 1 250,0 z"
       transform="matrix(-1,0,0,1,287,59)" />
    <path
       style="fill:none;stroke:#000000;stroke-width:3;stroke-linecap:butt;stroke-linejoin:miter;stroke-miterlimit:4;stroke-opacity:1;stroke-dasharray:3, 9;stroke-dashoffset:0"
       d="m 35,182 250,0"
       id="path3593" />
    <path
       style="fill:none;stroke:#000000;stroke-width:2.86018682;stroke-linecap:butt;stroke-linejoin:miter;stroke-miterlimit:4;stroke-opacity:1;stroke-dasharray:2.86018677, 8.58056031;stroke-dashoffset:0"
       d="m 163,299.65434 0,-112.27312"
       id="path3593-1" />
    <path
       style="fill:none;stroke:#000000;stroke-width:1px;stroke-linecap:butt;stroke-linejoin:miter;stroke-opacity:1"
       d="M 163,180 220.85714,75.714286"
       id="path3617"
       sodipodi:nodetypes="cc" />
    <path
       style="fill:none;stroke:#000000;stroke-width:1px;stroke-linecap:butt;stroke-linejoin:miter;stroke-opacity:1"
       d="M 163,180 273,120"
       id="path3619"
       sodipodi:nodetypes="cc" />
    <path
       style="fill:#ffffff;fill-opacity:1;stroke:#000000;stroke-width:1px;stroke-linecap:butt;stroke-linejoin:miter;stroke-opacity:1"
       d="M 163.57143,181.57142 202.28571,24.285714 163,20 l 0.57143,161.57142 z"
       id="path3643"
       sodipodi:nodetypes="cccc" />
    <g
       style="font-style:normal;font-weight:normal;font-size:19.54706955px;font-family:'Bitstream Vera Sans';fill:#000000;fill-opacity:1;stroke:none"
       id="text3988"
       transform="matrix(0.81166745,0,0,0.81166745,1.6421157,-1.25947)">
      <path
         d="m -2.0231386,36.428781 21.4352826,0 0,6.522053 -21.4352826,0 0,-6.522053 z"
         style="font-size:81.44612122px"
         id="path8071"
         inkscape:connector-curvature="0" />
      <path
         d="m 33.530002,55.239336 13.123642,0 0,-45.2964516 -14.276932,2.8633406 0,-7.3174253 14.197395,-2.8633402 8.03326,0 0,52.6138765 13.123643,0 0,6.760664 -34.201008,0 0,-6.760664 z"
         style="font-size:81.44612122px"
         id="path8073"
         inkscape:connector-curvature="0" />
      <path
         d="m 84.075912,2.6254595 31.536508,0 0,6.7606643 -24.179314,0 0,14.5553132 q 1.749819,-0.59653 3.499638,-0.87491 1.749819,-0.318149 3.499638,-0.318149 9.942158,0 15.748368,5.4483 5.80622,5.4483 5.80622,14.754156 0,9.584236 -5.96529,14.91323 -5.96529,5.289226 -16.822125,5.289226 -3.73825,0 -7.635574,-0.636298 -3.857556,-0.636298 -7.993492,-1.908893 l 0,-8.073029 q 3.579176,1.948662 7.396963,2.903109 3.817786,0.954446 8.073028,0.954446 6.87997,0 10.8966,-3.618943 4.01663,-3.618944 4.01663,-9.822848 0,-6.203904 -4.01663,-9.822848 -4.01663,-3.618944 -10.8966,-3.618944 -3.221258,0 -6.442515,0.715836 -3.181489,0.715835 -6.522053,2.227042 l 0,-29.8264605 z"
         style="font-size:81.44612122px"
         id="path8075"
         inkscape:connector-curvature="0" />
      <path
         d="m 147.50686,6.6818581 q -3.18149,0 -5.36877,2.2270424 -2.18727,2.1872735 -2.18727,5.3687625 0,3.141721 2.18727,5.328995 2.18728,2.147505 5.36877,2.147505 3.18148,0 5.36876,-2.147505 2.18727,-2.187274 2.18727,-5.328995 0,-3.14172 -2.22704,-5.3687625 -2.18727,-2.2270424 -5.32899,-2.2270424 z m 0,-5.1301512 q 2.54519,0 4.89153,0.9942154 2.34635,0.9544467 4.0564,2.7838029 1.82936,1.7895877 2.74404,4.0563986 0.91468,2.2668112 0.91468,4.8915392 0,5.249457 -3.69849,8.90817 -3.65871,3.618944 -8.9877,3.618944 -5.36877,0 -8.94794,-3.579176 -3.57918,-3.579175 -3.57918,-8.947938 0,-5.3289939 3.65872,-9.027475 3.65871,-3.6984811 8.94794,-3.6984811 z"
         style="font-size:81.44612122px"
         id="path8077"
         inkscape:connector-curvature="0" />
    </g>
  </g>
</svg>
