<?xml version="1.0" encoding="UTF-8" standalone="no"?>
<svg
   xmlns:dc="http://purl.org/dc/elements/1.1/"
   xmlns:cc="http://creativecommons.org/ns#"
   xmlns:rdf="http://www.w3.org/1999/02/22-rdf-syntax-ns#"
   xmlns:svg="http://www.w3.org/2000/svg"
   xmlns="http://www.w3.org/2000/svg"
   xmlns:sodipodi="http://sodipodi.sourceforge.net/DTD/sodipodi-0.dtd"
   xmlns:inkscape="http://www.inkscape.org/namespaces/inkscape"
   width="320"
   height="320"
   id="svg2"
   sodipodi:version="0.32"
   inkscape:version="1.0.2 (1.0.2+r75+1)"
   version="1.0"
   sodipodi:docname="ReactionByproduct.svg"
   inkscape:output_extension="org.inkscape.output.svg.inkscape"
   inkscape:export-filename="/home/aclark/CRK3/iMMDS/res/actions/GenericBack.png"
   inkscape:export-xdpi="12.375"
   inkscape:export-ydpi="12.375">
  <defs
     id="defs4">
    <inkscape:perspective
       sodipodi:type="inkscape:persp3d"
       inkscape:vp_x="0 : 160 : 1"
       inkscape:vp_y="0 : 1000 : 0"
       inkscape:vp_z="320 : 160 : 1"
       inkscape:persp3d-origin="160 : 106.66667 : 1"
       id="perspective2892" />
    <linearGradient
       id="linearGradient3136">
      <stop
         style="stop-color:#b2a5a5;stop-opacity:0.50196081;"
         offset="0"
         id="stop3138" />
      <stop
         style="stop-color:#000000;stop-opacity:0.19607843;"
         offset="1"
         id="stop3140" />
    </linearGradient>
    <linearGradient
       id="linearGradient3204">
      <stop
         style="stop-color:#ffffff;stop-opacity:1;"
         offset="0"
         id="stop3206" />
      <stop
         id="stop3212"
         offset="1"
         style="stop-color:#000000;stop-opacity:0.29591838;" />
    </linearGradient>
    <inkscape:perspective
       id="perspective2964"
       inkscape:persp3d-origin="0.5 : 0.33333333 : 1"
       inkscape:vp_z="1 : 0.5 : 1"
       inkscape:vp_y="0 : 1000 : 0"
       inkscape:vp_x="0 : 0.5 : 1"
       sodipodi:type="inkscape:persp3d" />
  </defs>
  <sodipodi:namedview
     id="base"
     pagecolor="#ffffff"
     bordercolor="#666666"
     borderopacity="1.0"
     gridtolerance="10000"
     guidetolerance="10"
     objecttolerance="10"
     inkscape:pageopacity="0.0"
     inkscape:pageshadow="2"
     inkscape:zoom="1.29375"
     inkscape:cx="160"
     inkscape:cy="158.39005"
     inkscape:document-units="px"
     inkscape:current-layer="layer1"
     width="320px"
     height="320px"
     showborder="true"
     inkscape:window-width="1920"
     inkscape:window-height="1023"
     inkscape:window-x="0"
     inkscape:window-y="0"
     showgrid="false"
     inkscape:window-maximized="1"
     inkscape:document-rotation="0"
     inkscape:snap-global="false">
    <inkscape:grid
       type="xygrid"
       id="grid2894" />
  </sodipodi:namedview>
  <metadata
     id="metadata7">
    <rdf:RDF>
      <cc:Work
         rdf:about="">
        <dc:format>image/svg+xml</dc:format>
        <dc:type
           rdf:resource="http://purl.org/dc/dcmitype/StillImage" />
      </cc:Work>
    </rdf:RDF>
  </metadata>
  <g
     inkscape:label="Layer 1"
     inkscape:groupmode="layer"
     id="layer1">
    <g
       id="g924"
       transform="matrix(0.73353685,0,0,0.73353685,42.634103,42.634105)">
      <path
         style="fill:#ffffff;fill-opacity:1;stroke:#000000;stroke-width:1px;stroke-linecap:butt;stroke-linejoin:miter;stroke-opacity:1"
         d="m 22.437349,113.29388 65.87433,0.40287 38.096271,61.74497 -26.860377,-15.91825 -24.524244,41.4922 76.298641,0.53079 0.62111,70.43851 H 89.798885 L 75.401452,267.69328 62.128293,253.12663 21.734991,174.43095 23.213374,158.94458 41.507869,128.59284 Z"
         id="path914" />
      <path
         style="fill:#ffffff;fill-opacity:1;stroke:#000000;stroke-width:1px;stroke-linecap:butt;stroke-linejoin:miter;stroke-opacity:1"
         d="m 67.786694,82.137516 34.147796,-55.944052 11.74477,-9.711949 102.92376,1.22463 11.3667,7.693609 19.2016,32.727345 22.85618,-12.546457 -31.63022,59.744938 -69.91119,3.44859 22.19427,-15.031542 -23.64012,-41.325919 -37.07433,65.497231 z"
         id="path916" />
      <path
         style="fill:#ffffff;fill-opacity:1;stroke:#000000;stroke-width:1px;stroke-linecap:butt;stroke-linejoin:miter;stroke-opacity:1"
         d="m 170.17102,235.64338 32.38047,-59.00294 1.37005,25.92268 48.04645,2.36159 -38.60017,-66.72229 62.03656,-35.8625 33.13422,60.10241 -0.53772,19.13744 -54.28438,84.31018 -19.70509,3.23532 -29.20977,-0.41497 -1.04975,26.25351 z"
         id="path918" />
      <path
         style="fill:#000000;stroke-width:0.164964"
         d="m 204.91822,304.38597 c -0.90735,-1.56666 -9.83503,-17.06422 -19.83931,-34.439 -10.00426,-17.37477 -18.45156,-32.02622 -18.77179,-32.55876 -0.55282,-0.91934 -0.56952,-0.99017 -0.33049,-1.40219 0.13847,-0.23867 8.47283,-15.65181 18.52078,-34.25145 10.04799,-18.59963 19.27909,-35.68697 20.51358,-37.97186 1.23449,-2.28489 2.25186,-4.14072 2.26081,-4.12409 0.009,0.0167 -0.0418,2.47997 -0.11292,5.47406 -0.0711,2.99409 -0.28882,12.14823 -0.48389,20.34253 -0.19507,8.1943 -0.32859,14.92377 -0.29672,14.95437 0.0319,0.0306 9.07073,0.11045 20.08636,0.17745 17.96029,0.10921 20.01837,0.0957 19.93133,-0.13114 -0.0534,-0.13909 -8.27754,-14.4835 -18.27591,-31.87646 -9.99837,-17.39294 -18.18802,-31.73714 -18.19922,-31.87599 -0.0244,-0.30248 65.86602,-38.402417 66.06413,-38.200367 0.0698,0.07117 7.46805,12.946507 16.44072,28.611947 17.32058,30.24017 17.12106,29.86822 18.26973,34.05873 0.97321,3.55036 1.15322,5.0884 1.1464,9.79514 -0.006,3.93172 -0.0352,4.34298 -0.4515,6.29454 -0.73986,3.46827 -1.90672,6.6878 -3.45826,9.54195 -1.14688,2.10975 -3.73572,6.12953 -4.7319,7.34743 -0.52244,0.63871 -10.28688,15.96795 -21.69875,34.06495 -11.41188,18.09702 -21.08782,33.38619 -21.50208,33.97593 -1.13304,1.61293 -3.86531,4.24162 -5.80945,5.58919 -2.92775,2.02937 -4.71855,2.9126 -7.76965,3.83203 -3.35986,1.01247 -3.07531,1.00237 -21.95719,0.77948 -9.41075,-0.11109 -17.14016,-0.16903 -17.17649,-0.12872 -0.0363,0.0403 -0.19322,7.90491 -0.34863,17.47692 -0.15543,9.57201 -0.30226,17.42351 -0.32628,17.44776 -0.024,0.0242 -0.78607,-1.2377 -1.69341,-2.80438 z m -3.76809,-30.39625 c 0.0632,-4.35441 0.12785,-7.92764 0.14359,-7.94049 0.0158,-0.0129 8.91984,0.0916 19.78684,0.23213 18.13794,0.23452 19.8898,0.23368 21.36278,-0.0102 4.23202,-0.70073 7.74584,-2.54479 10.92345,-5.73264 0.68133,-0.68355 1.43503,-1.53723 1.6749,-1.89708 0.23988,-0.35987 7.85334,-12.42033 16.91882,-26.80103 9.06546,-14.38069 16.61633,-26.35049 16.77975,-26.59955 l 0.29708,-0.45284 -0.71954,0.26089 c -1.5539,0.5634 -3.44018,1.08165 -5.17355,1.42141 -1.69617,0.33247 -2.40948,0.3597 -10.93009,0.4171 -8.32329,0.0561 -71.94777,-0.3801 -72.06171,-0.49402 -0.0269,-0.0269 0.0615,-4.45724 0.1965,-9.84516 0.135,-5.38792 0.22365,-10.21485 0.19701,-10.7265 l -0.0485,-0.93027 -13.89061,25.70656 -13.89061,25.70656 14.05557,24.40628 14.05558,24.40628 0.10386,-1.60515 c 0.0572,-0.88284 0.15559,-5.16787 0.2188,-9.52227 z m 78.52321,-73.16951 c 6.37928,-0.73077 11.56453,-3.31568 16.81415,-8.38203 2.99094,-2.88654 6.63668,-8.80545 7.99773,-12.98438 1.03483,-3.1774 1.25951,-4.74156 1.25428,-8.73236 -0.004,-3.06565 -0.0628,-3.93659 -0.37866,-5.60876 -0.39374,-2.08453 -1.37548,-5.248 -2.08428,-6.71624 -0.75071,-1.55508 -29.53102,-51.64927 -29.66657,-51.63683 -0.19385,0.0178 -55.53206,31.94445 -55.53842,32.04216 -0.003,0.0458 7.99537,14.00169 17.7741,31.01313 l 17.77951,30.92989 8.40845,0.0848 c 4.62463,0.0466 10.15292,0.10168 12.28508,0.12236 2.13215,0.0207 4.54174,-0.0386 5.35463,-0.1317 z M 87.827472,274.63819 c -5.203068,-0.79107 -10.419896,-2.63254 -14.594551,-5.15165 -4.353064,-2.62676 -8.519627,-6.75799 -11.043242,-10.94959 -1.262451,-2.09689 -2.831693,-5.20944 -3.716486,-7.37156 -0.544416,-1.33041 -7.511979,-14.60798 -19.230451,-36.64614 -10.10719,-19.00792 -18.624148,-35.13048 -18.926566,-35.8279 -1.116769,-2.57539 -1.856506,-6.62104 -1.854888,-10.14444 0.0019,-3.63095 0.654228,-6.72899 2.035701,-9.66462 0.394153,-0.8376 4.544779,-7.96215 9.223589,-15.83236 l 8.506945,-14.30947 -0.439439,-0.30462 c -0.241696,-0.16756 -6.972002,-4.18599 -14.956233,-8.92986 -7.98423,-4.74388 -14.5873101,-8.69015 -14.6735002,-8.76948 -0.089531,-0.0824 17.4198072,-0.14425 40.8306382,-0.14425 h 40.987355 l 17.154026,27.75104 c 9.43472,15.26308 19.72878,31.90863 22.87569,36.99013 3.14692,5.0815 5.69949,9.26129 5.67239,9.28837 -0.0454,0.0454 -7.21158,-4.27678 -26.97346,-16.26875 -4.21365,-2.55693 -7.72585,-4.62742 -7.80489,-4.60107 -0.16459,0.0549 -19.755264,33.87261 -19.877087,34.31217 -0.076,0.27432 1.756092,0.28868 36.808577,0.28868 h 36.88858 v 38.27153 38.27153 l -32.70402,-0.016 c -26.776821,-0.0131 -32.973084,-0.0569 -34.188678,-0.24171 z m 60.841728,-5.96968 c 0.0397,-0.0681 0.0333,-14.58088 -0.0141,-32.25075 l -0.0863,-32.127 -35.63703,0.0417 -35.637016,0.0416 -5.913673,10.14525 c -3.252525,5.57989 -6.289448,10.88022 -6.748714,11.77851 -3.011814,5.89086 -3.471157,12.15391 -1.446993,19.72951 0.278785,1.04339 0.75186,2.49095 1.051278,3.21679 0.69146,1.67628 2.69962,5.41684 3.734562,6.95637 3.975927,5.91431 9.729297,9.74994 17.66333,11.77568 3.143091,0.8025 2.331852,0.78317 33.567506,0.80014 16.16726,0.009 29.42748,-0.0396 29.46716,-0.10774 z M 56.371669,231.84112 c 0.431669,-2.74337 1.755297,-6.39843 3.375521,-9.32115 0.402378,-0.72584 3.514796,-6.10777 6.916504,-11.95985 3.401699,-5.85208 11.828899,-20.40186 18.727119,-32.33285 6.898219,-11.93098 12.709413,-21.97525 12.913763,-22.3206 0.219918,-0.37164 0.460648,-0.59371 0.589862,-0.54413 0.120063,0.0461 4.271522,2.54527 9.225462,5.55378 4.95394,3.0085 9.03111,5.44325 9.06037,5.41055 0.0467,-0.0521 -29.141038,-47.35002 -30.30864,-49.11438 l -0.451033,-0.68156 h -28.12393 c -15.468167,0 -28.121857,0.0556 -28.119311,0.12373 0.0028,0.068 3.680825,2.30607 8.173949,4.97338 5.468896,3.24657 8.14177,4.92147 8.08597,5.06689 -0.04581,0.11946 -4.443201,7.55037 -9.771904,16.51311 -5.328695,8.96274 -9.901762,16.6834 -10.162367,17.15703 -2.242379,4.07537 -2.602546,10.08105 -0.901489,15.03214 0.382967,1.11466 4.663337,9.32316 15.458808,29.64553 8.211057,15.45722 14.968479,28.10705 15.0165,28.11072 0.04798,0.004 0.180699,-0.58689 0.294846,-1.31234 z M 104.48878,108.52371 C 90.244189,100.68421 75.230216,92.430717 71.124403,90.182622 65.22274,86.951222 63.673146,86.035853 63.725426,85.811925 63.862874,85.223166 95.406144,28.63145 96.25501,27.450659 c 3.214234,-4.471049 8.37664,-8.88924 13.01771,-11.141067 4.23611,-2.055336 7.64869,-3.009101 12.12483,-3.3887 2.82711,-0.239754 5.28012,-0.101652 8.82554,0.49687 l 2.80438,0.473422 39.09634,0.36282 39.09636,0.362818 3.71167,0.816399 c 4.07205,0.895663 5.97386,1.577623 8.30313,2.977355 2.76428,1.661159 5.3934,4.043048 7.06502,6.400667 0.41815,0.589744 4.56177,7.530582 9.20805,15.424085 4.64629,7.893502 8.46065,14.365538 8.47637,14.3823 0.0157,0.01676 6.85092,-3.935796 15.18934,-8.783463 8.33841,-4.847666 15.18166,-8.793032 15.20722,-8.767479 0.0533,0.05331 -39.31997,71.233184 -39.50859,71.424434 -0.11096,0.11255 -13.96859,0.81761 -70.36736,3.58022 -9.24874,0.45304 -16.83759,0.80199 -16.86412,0.77545 -0.0265,-0.0265 0.52554,-0.3719 1.22682,-0.7675 5.49437,-3.09936 33.96086,-19.353803 34.04621,-19.440485 0.13032,-0.132346 -20.05984,-34.432731 -20.24804,-34.398719 -0.0722,0.01305 -8.19009,14.541489 -18.03964,32.285413 -9.84955,17.743911 -17.9825,32.259451 -18.07324,32.256761 -0.0908,-0.003 -11.81963,-6.41905 -26.06423,-14.25855 z m 41.1425,-25.237169 c 9.553,-17.195662 17.32937,-31.368357 17.28082,-31.494881 -0.10858,-0.282965 -12.16104,-19.293051 -13.39282,-21.124214 -2.9249,-4.348157 -7.44017,-7.887335 -12.36772,-9.694115 -1.72624,-0.632958 -10.73958,-2.10465 -12.86715,-2.100942 -2.84881,0.0049 -5.74796,0.440395 -8.40834,1.262868 -1.89195,0.584907 -5.6779,2.503089 -7.51065,3.805337 -1.70485,1.211376 -5.5943,4.968574 -6.8092,6.577668 -0.70428,0.932799 -29.739817,52.986307 -29.61949,53.100393 0.10085,0.09562 56.14105,30.911305 56.23364,30.922065 0.0505,0.006 7.9079,-14.05852 17.46091,-31.254179 z m 61.51361,20.798059 c 15.36019,-0.7539 27.95907,-1.40219 27.99751,-1.44062 0.0384,-0.0384 5.94185,-10.68136 13.11872,-23.650946 7.17686,-12.969586 13.30999,-24.05035 13.6292,-24.62392 l 0.58039,-1.042857 -0.46832,0.245235 c -0.2576,0.134879 -3.99119,2.293602 -8.29685,4.79716 -6.18179,3.594444 -7.86897,4.508258 -8.02097,4.344334 -0.18302,-0.197397 -18.32221,-30.974985 -19.27537,-32.705394 -1.13933,-2.068427 -3.23233,-4.349086 -5.24642,-5.716828 -2.15805,-1.465506 -3.60135,-2.033428 -7.22072,-2.841287 l -3.38174,-0.754822 -31.26059,-0.316207 c -17.19332,-0.173914 -31.27512,-0.303342 -31.2929,-0.287616 -0.0178,0.01572 0.59495,0.56745 1.36159,1.226058 1.82166,1.564954 3.76176,3.796913 5.25998,6.051287 0.66327,0.998028 3.52747,5.48916 6.36489,9.98029 2.83743,4.491131 5.28874,8.277043 5.44737,8.413137 0.15863,0.136096 6.75415,11.228378 14.65671,24.64952 l 14.36829,24.40207 -9.31415,5.291356 c -5.12279,2.91024 -9.31688,5.32991 -9.32019,5.37703 -0.003,0.0471 0.53215,0.0605 1.18995,0.0297 0.65778,-0.0308 13.7634,-0.6728 29.12362,-1.42671 z"
         id="path910" />
    </g>
  </g>
</svg>
