<?xml version="1.0" encoding="UTF-8" standalone="no"?>
<svg
   xmlns:dc="http://purl.org/dc/elements/1.1/"
   xmlns:cc="http://creativecommons.org/ns#"
   xmlns:rdf="http://www.w3.org/1999/02/22-rdf-syntax-ns#"
   xmlns:svg="http://www.w3.org/2000/svg"
   xmlns="http://www.w3.org/2000/svg"
   xmlns:sodipodi="http://sodipodi.sourceforge.net/DTD/sodipodi-0.dtd"
   xmlns:inkscape="http://www.inkscape.org/namespaces/inkscape"
   width="320"
   height="320"
   id="svg2"
   sodipodi:version="0.32"
   inkscape:version="1.0.2 (1.0.2+r75+1)"
   version="1.0"
   sodipodi:docname="ReactionSolvent.svg"
   inkscape:output_extension="org.inkscape.output.svg.inkscape"
   inkscape:export-filename="/home/aclark/CRK3/iMMDS/res/actions/GenericBack.png"
   inkscape:export-xdpi="12.375"
   inkscape:export-ydpi="12.375">
  <defs
     id="defs4">
    <inkscape:perspective
       sodipodi:type="inkscape:persp3d"
       inkscape:vp_x="0 : 160 : 1"
       inkscape:vp_y="0 : 1000 : 0"
       inkscape:vp_z="320 : 160 : 1"
       inkscape:persp3d-origin="160 : 106.66667 : 1"
       id="perspective2892" />
    <linearGradient
       id="linearGradient3136">
      <stop
         style="stop-color:#b2a5a5;stop-opacity:0.50196081;"
         offset="0"
         id="stop3138" />
      <stop
         style="stop-color:#000000;stop-opacity:0.19607843;"
         offset="1"
         id="stop3140" />
    </linearGradient>
    <linearGradient
       id="linearGradient3204">
      <stop
         style="stop-color:#ffffff;stop-opacity:1;"
         offset="0"
         id="stop3206" />
      <stop
         id="stop3212"
         offset="1"
         style="stop-color:#000000;stop-opacity:0.29591838;" />
    </linearGradient>
    <inkscape:perspective
       id="perspective2964"
       inkscape:persp3d-origin="0.5 : 0.33333333 : 1"
       inkscape:vp_z="1 : 0.5 : 1"
       inkscape:vp_y="0 : 1000 : 0"
       inkscape:vp_x="0 : 0.5 : 1"
       sodipodi:type="inkscape:persp3d" />
  </defs>
  <sodipodi:namedview
     id="base"
     pagecolor="#ffffff"
     bordercolor="#666666"
     borderopacity="1.0"
     gridtolerance="10000"
     guidetolerance="10"
     objecttolerance="10"
     inkscape:pageopacity="0.0"
     inkscape:pageshadow="2"
     inkscape:zoom="0.95238445"
     inkscape:cx="145.42665"
     inkscape:cy="256.43578"
     inkscape:document-units="px"
     inkscape:current-layer="layer1"
     width="320px"
     height="320px"
     showborder="true"
     inkscape:window-width="1920"
     inkscape:window-height="1023"
     inkscape:window-x="0"
     inkscape:window-y="0"
     showgrid="false"
     inkscape:window-maximized="1"
     inkscape:document-rotation="0">
    <inkscape:grid
       type="xygrid"
       id="grid2894" />
  </sodipodi:namedview>
  <metadata
     id="metadata7">
    <rdf:RDF>
      <cc:Work
         rdf:about="">
        <dc:format>image/svg+xml</dc:format>
        <dc:type
           rdf:resource="http://purl.org/dc/dcmitype/StillImage" />
      </cc:Work>
    </rdf:RDF>
  </metadata>
  <g
     inkscape:label="Layer 1"
     inkscape:groupmode="layer"
     id="layer1">
    <path
       style="fill:#000000;stroke-width:0.32992"
       id="path910"
       d="" />
    <path
       id="path916"
       style="fill:none;fill-opacity:1;stroke:#000000;stroke-width:3;stroke-linecap:round;stroke-linejoin:round;stroke-miterlimit:4;stroke-dasharray:none;stroke-opacity:1"
       d="m 203.48086,114.19683 -2.61046,2.40899 c -0.60289,0.53805 -2.39297,1.56155 -4.88013,2.79477 -3.30758,1.63999 -10.73612,3.51665 -18.30962,4.6251 -4.99797,0.73149 -15.29634,0.97248 -21.6102,0.50364 -12.63145,-0.93795 -23.95553,-4.18773 -28.16634,-8.07997 -0.70326,-0.65006 -1.32439,-1.18092 -1.38024,-1.18092 -0.0508,0 -0.0591,-0.003 -0.18003,-0.21647 l -0.47366,-0.0706 c 0.0531,2.66261 0.15535,4.00771 0.34292,4.45791 0.42877,1.02915 0.42005,1.04418 -1.10376,2.03178 -1.7174,1.11306 -3.76756,3.0403 -5.44381,5.1159 -1.24309,1.53922 -3.43367,5.98297 -3.69064,7.48631 -0.0465,0.27218 -0.25819,1.31239 -0.46937,2.3104 -0.27167,1.28365 -0.33092,5.19223 -0.20147,13.3609 0.10064,6.35095 0.26169,17.11386 0.35792,23.91845 0.0961,6.8046 0.31402,20.90889 0.48438,31.34261 0.17036,10.4337 0.39556,24.98381 0.49937,32.33278 0.34175,24.19878 0.85085,44.9531 1.16377,47.42112 0.33201,2.61865 1.77016,7.26286 3.01339,9.73242 1.32623,2.63445 3.29666,5.27264 5.87459,7.8678 3.19865,3.22003 5.57009,4.93631 9.52238,6.88834 6.56862,3.24425 11.60715,4.59698 22.65395,6.08463 0.54436,0.0734 5.07242,0.0882 10.06246,0.0322 8.24638,-0.0927 9.40439,-0.17726 12.70293,-0.9216 6.04066,-1.3631 11.41983,-3.67203 15.2748,-6.55828 5.54432,-4.15106 10.18788,-10.26977 12.26143,-16.15782 0.3101,-0.88055 0.62544,-1.53865 0.70084,-1.46382 0.0752,0.0748 0.16409,-0.26836 0.19932,-0.76085 0.0352,-0.49248 0.28766,-1.55443 0.55938,-2.36185 1.1236,-3.33872 1.17014,-4.53547 2.17967,-54.42091 0.17809,-8.80061 0.55531,-26.61566 0.838,-39.58976 0.28269,-12.9741 0.54395,-31.45784 0.58081,-41.07502 l 0.0686,-17.48661 -0.7973,-1.98036 c -0.43772,-1.08873 -1.41967,-2.8698 -2.18395,-3.95854 -1.4465,-2.06056 -6.7155,-6.82598 -7.09837,-7.09195 l -1.03738,-0.793 c -0.46214,-0.33793 -0.50094,-0.63507 -0.23576,-1.81531 0.17432,-0.77605 0.28394,-1.89227 0.24433,-2.47972 -0.0395,-0.58746 0.12765,-1.54771 0.37077,-2.13466 0.009,-0.0229 0.0146,-0.0732 0.0236,-0.0985 z"
       sodipodi:nodetypes="ccsssssccsssssscscsssssssssssssscccsccssscc" />
    <path
       id="path914"
       style="fill:#000000;stroke-width:0.32992"
       d="m 131.47687,6.808101 c -4.5512,-0.04126 -9.22261,0.6941353 -13.91813,2.2161015 -4.66375,1.5116655 -6.54802,2.4720795 -16.28642,8.3200215 -4.9727,2.986126 -12.37802,7.416132 -16.455717,9.84386 -7.650624,4.554938 -8.420821,5.102007 -22.27889,15.804184 -10.219046,7.891863 -10.304188,7.97176 -9.798854,9.08087 0.519105,1.139294 1.423232,1.082305 4.391487,-0.274334 1.341107,-0.612955 6.001156,-2.7061 10.356092,-4.650812 4.354946,-1.944709 9.007215,-4.041569 10.338939,-4.659383 1.331737,-0.617815 2.473446,-1.123054 2.535446,-1.123054 0.062,0 3.574259,-2.100421 7.805647,-4.667956 30.94572,-18.777328 31.44365,-19.047552 37.08861,-20.214953 9.22882,-1.90856 19.93733,1.521919 26.34245,8.440042 2.65869,2.87163 5.20927,7.767801 5.96032,11.440566 0.37967,1.856641 0.57922,7.143218 0.85943,22.701101 0.20093,11.154028 0.31105,20.334685 0.24434,20.401414 -0.0668,0.06673 -1.67935,0.285283 -3.58349,0.486515 -4.59639,0.485754 -13.47581,2.139717 -17.06012,3.17841 -5.61909,1.628353 -8.99379,4.13417 -10.96691,8.142135 l -1.09733,2.22896 0.0322,8.821531 c 0.0388,10.14861 -0.0375,12.02856 0.33223,12.6857 0.16236,0.28855 0.14987,0.25942 0.20572,0.25942 0.0559,0 0.67698,0.53086 1.38024,1.18092 4.21082,3.89224 15.53489,7.14202 28.16634,8.07997 6.31387,0.46884 16.61223,0.22785 21.6102,-0.50364 7.5735,-1.10845 15.00205,-2.98511 18.30962,-4.6251 2.48716,-1.23322 4.27725,-2.25672 4.88014,-2.79477 l 2.61902,-2.41543 c 0.4515,-1.0708 0.49281,-2.32152 0.3022,-9.07229 -0.36967,-13.091373 -0.68138,-14.472173 -3.93283,-17.430896 -4.17556,-3.799628 -12.967,-6.5209 -24.01276,-7.432726 -2.61991,-0.216275 -4.85531,-0.529287 -4.96587,-0.696549 -0.11056,-0.16726 -0.30147,-3.745148 -0.42434,-7.949243 -0.41097,-14.060113 -1.20986,-31.046913 -1.55171,-32.997181 -0.86204,-4.917572 -3.76508,-11.738796 -6.83263,-16.050657 -2.15732,-3.032424 -6.39538,-7.198571 -9.29948,-9.140879 -6.46007,-4.3205979 -13.70979,-6.5431035 -21.29514,-6.611868 z"
       sodipodi:nodetypes="sssssssssssssssssssccssssssccssssssssss" />
    <path
       style="fill:#ffffff;fill-opacity:1;stroke:#000000;stroke-width:1.09733px;stroke-linecap:butt;stroke-linejoin:miter;stroke-opacity:1"
       d="m 120.30837,180.60673 1.31576,103.24994 c 3.9087,20.90551 30.82169,27.94502 45.40976,27.66033 23.70121,0.68566 37.55179,-12.37644 41.0891,-29.05158 l 2.19481,-102.1028 c -0.32663,16.61669 -89.0928,13.6008 -90.00943,0.24411 z"
       id="path1591"
       sodipodi:nodetypes="cccccc" />
    <path
       id="path1593"
       style="fill:#ffffff;fill-opacity:0.752941;stroke:#000000;stroke-width:1.09733px;stroke-linecap:butt;stroke-linejoin:miter;stroke-opacity:1"
       d="m 161.03409,169.66691 c -21.07109,0.11388 -40.87977,3.45155 -40.72566,10.93905 0.91662,13.35668 89.68264,16.37237 90.00926,-0.24434 0.0988,-6.8119 -25.40301,-10.82379 -49.2836,-10.69471 z" />
  </g>
</svg>
