<?xml version="1.0" encoding="UTF-8" standalone="no"?>
<!-- Created with Inkscape (http://www.inkscape.org/) -->

<svg
   xmlns:dc="http://purl.org/dc/elements/1.1/"
   xmlns:cc="http://creativecommons.org/ns#"
   xmlns:rdf="http://www.w3.org/1999/02/22-rdf-syntax-ns#"
   xmlns:svg="http://www.w3.org/2000/svg"
   xmlns="http://www.w3.org/2000/svg"
   xmlns:sodipodi="http://sodipodi.sourceforge.net/DTD/sodipodi-0.dtd"
   xmlns:inkscape="http://www.inkscape.org/namespaces/inkscape"
   width="320"
   height="320"
   id="svg2"
   sodipodi:version="0.32"
   inkscape:version="0.91 r13725"
   version="1.0"
   sodipodi:docname="ToolDrag.svg"
   inkscape:output_extension="org.inkscape.output.svg.inkscape"
   inkscape:export-filename="/home/aclark/CRK3/MMTk/images/msk/MainSelect.png"
   inkscape:export-xdpi="9"
   inkscape:export-ydpi="9">
  <defs
     id="defs4">
    <inkscape:perspective
       id="perspective8"
       inkscape:persp3d-origin="160 : 106.66667 : 1"
       inkscape:vp_z="320 : 160 : 1"
       inkscape:vp_y="0 : 1000 : 0"
       inkscape:vp_x="0 : 160 : 1"
       sodipodi:type="inkscape:persp3d" />
  </defs>
  <sodipodi:namedview
     id="base"
     pagecolor="#bcd5ff"
     bordercolor="#666666"
     borderopacity="1.0"
     gridtolerance="10000"
     guidetolerance="10"
     objecttolerance="10"
     inkscape:pageopacity="0"
     inkscape:pageshadow="2"
     inkscape:zoom="0.98994949"
     inkscape:cx="-114.21469"
     inkscape:cy="158.28825"
     inkscape:document-units="px"
     inkscape:current-layer="layer1"
     width="320px"
     height="320px"
     showborder="true"
     inkscape:window-width="1857"
     inkscape:window-height="1155"
     inkscape:window-x="63"
     inkscape:window-y="0"
     showgrid="false"
     inkscape:window-maximized="1">
    <inkscape:grid
       type="xygrid"
       id="grid4135" />
  </sodipodi:namedview>
  <metadata
     id="metadata7">
    <rdf:RDF>
      <cc:Work
         rdf:about="">
        <dc:format>image/svg+xml</dc:format>
        <dc:type
           rdf:resource="http://purl.org/dc/dcmitype/StillImage" />
        <dc:title></dc:title>
      </cc:Work>
    </rdf:RDF>
  </metadata>
  <g
     inkscape:label="Layer 1"
     inkscape:groupmode="layer"
     id="layer1">
    <path
       style="fill:#ffffff;fill-opacity:1"
       d="m 198.5848,262.7811 c 4.20633,-2.11828 10.6979,-6.53843 14.56602,-9.91813 8.37261,-7.31539 14.45656,-16.75062 17.0571,-26.45281 l 1.0485,-3.91179 0.13152,-78.9888 c 0.12928,-77.644351 0.1161,-79.01901 -0.77415,-80.764052 -2.61434,-5.124548 -8.31784,-6.963729 -13.48206,-4.347502 -2.71923,1.377593 -4.29692,3.30956 -5.08124,6.222338 -0.33279,1.235895 -0.3825,12.683532 -0.15789,36.363226 0.35259,37.17213 0.35694,37.08732 -1.99451,38.93698 -2.32354,1.82769 -6.12039,0.96658 -7.48256,-1.69703 -0.35868,-0.70137 -0.51673,-7.58938 -0.51673,-22.52069 0,-12.1911 -0.18698,-22.002082 -0.43159,-22.645446 -0.70246,-1.847607 -3.35617,-4.55936 -5.34669,-5.463631 -3.93544,-1.787837 -9.4322,-0.378546 -12.0852,3.098452 l -1.3336,1.747828 -0.23129,22.471767 c -0.17337,16.84505 -0.37697,22.72645 -0.8131,23.48887 -1.93589,3.38424 -7.07829,3.28127 -8.84694,-0.17715 -0.35869,-0.70137 -0.51672,-7.58938 -0.51672,-22.52069 0,-12.1911 -0.18699,-22.002082 -0.4316,-22.645446 -0.70246,-1.847607 -3.35618,-4.55936 -5.34668,-5.463631 -3.87387,-1.759857 -9.43517,-0.375283 -12.00019,2.987634 -1.8744,2.457453 -2.09288,5.31676 -2.10318,27.525053 l -0.009,20.04219 -1.35216,1.35214 c -1.88621,1.88622 -4.51033,1.88728 -6.62005,0.002 l -1.51068,-1.34958 -0.12936,-20.85437 -0.12937,-20.854377 -11.43597,0 -11.43598,0 -20.3527,13.451137 c -11.19399,7.39813 -20.84853,13.90316 -21.45454,14.45564 -2.60452,2.37443 -3.5731,7.35066 -2.11169,10.84917 1.53903,3.68433 5.1482,6.08608 9.17291,6.10418 2.01671,0.009 3.87187,-0.81214 17.31315,-7.66383 16.39457,-8.35714 16.58526,-8.4167 19.05356,-5.95088 l 1.15645,1.15528 0.23129,23.23462 c 0.12721,12.77904 0.0755,23.87456 -0.11494,24.65671 -0.41334,1.69773 -1.9511,3.20054 -3.69745,3.61342 -1.85784,0.43924 -3.99966,-0.6541 -6.33249,-3.23254 -1.12735,-1.24605 -6.56281,-6.87577 -12.0788,-12.51049 -9.75771,-9.96772 -10.09659,-10.26003 -12.52407,-10.80327 -5.52754,-1.23701 -10.96573,2.29848 -11.76838,7.6509 -0.47382,3.15968 0.52816,6.22712 3.57739,10.95165 3.38012,5.23721 8.36183,15.07942 15.73019,31.07758 7.08217,15.37679 13.71422,28.52253 18.13559,35.94749 8.19423,13.76091 16.10953,22.0795 23.08269,24.25878 1.51837,0.47453 8.21528,0.61604 30.29388,0.64015 l 28.34459,0.0309 3.13903,-1.58079 z"
       id="path4722"
       inkscape:connector-curvature="0" />
    <path
       style="fill:#000000"
       d="m 134.82466,273.41608 c -5.80862,-1.6108 -10.46095,-4.72519 -16.43545,-11.00231 -4.85695,-5.10295 -8.32243,-9.82569 -13.32153,-18.15452 -3.8183,-6.36155 -13.189163,-25.03627 -18.811557,-37.48861 -5.584843,-12.36919 -11.331247,-23.79278 -14.54321,-28.91127 -3.912906,-6.23548 -4.932004,-8.94395 -5.221532,-13.87741 -0.19007,-3.23866 -0.05317,-4.45531 0.776431,-6.90035 1.08983,-3.21196 2.809606,-5.97011 5.039937,-8.08297 l 1.411555,-1.3372 -2.283176,-2.05276 c -1.524641,-1.37079 -2.855587,-3.21098 -4.00614,-5.53896 -1.531867,-3.09952 -1.7437,-3.96029 -1.90992,-7.76077 -0.22887,-5.23296 0.550666,-8.26182 3.113499,-12.09739 2.180307,-3.26308 0.464333,-2.01174 26.409189,-19.25824 l 21.047404,-13.990971 14.57128,-0.138947 14.57127,-0.138934 1.29094,-1.811486 c 1.75423,-2.461626 4.69929,-4.797698 7.99299,-6.340171 2.47779,-1.160367 3.23542,-1.284647 7.83155,-1.284647 4.7443,0 5.29556,0.09812 8.15223,1.451665 1.68511,0.79842 3.88953,2.197638 4.8987,3.109366 l 1.83486,1.65768 1.34612,-1.406005 c 0.74038,-0.773306 2.8792,-2.163939 4.75294,-3.0903 3.00627,-1.486274 3.90363,-1.705716 7.63257,-1.866503 4.07983,-0.175908 6.07109,0.212155 10.12368,1.972955 0.75135,0.326463 0.80951,-0.165369 0.80951,-6.844982 0,-3.9582 0.2308,-8.299812 0.51286,-9.648026 1.20526,-5.76068 5.29243,-10.78836 10.94834,-13.467677 2.9094,-1.37824 3.43841,-1.473312 8.19847,-1.473312 4.76549,0 5.28676,0.09403 8.21474,1.48093 4.15609,1.968702 7.82558,5.494965 9.71781,9.338492 l 1.49582,3.038319 0.12085,79.570454 c 0.13305,87.59899 0.26376,83.15726 -2.70887,92.04841 -3.74053,11.18789 -11.68774,21.81638 -22.64435,30.2842 -4.65481,3.59747 -11.28374,7.68197 -15.47744,9.53662 l -2.56783,1.13562 -30.40146,-0.0414 c -22.76429,-0.031 -30.92439,-0.18638 -32.48308,-0.61863 z M 198.5848,262.7811 c 4.20633,-2.11828 10.6979,-6.53843 14.56602,-9.91813 8.37261,-7.31539 14.45656,-16.75062 17.0571,-26.45281 l 1.0485,-3.91179 0.13152,-78.9888 c 0.12928,-77.644351 0.1161,-79.01901 -0.77415,-80.764052 -2.61434,-5.124548 -8.31784,-6.963729 -13.48206,-4.347502 -2.71923,1.377593 -4.29692,3.30956 -5.08124,6.222338 -0.33279,1.235895 -0.3825,12.683532 -0.15789,36.363226 0.35259,37.17213 0.35694,37.08732 -1.99451,38.93698 -2.32354,1.82769 -6.12039,0.96658 -7.48256,-1.69703 -0.35868,-0.70137 -0.51673,-7.58938 -0.51673,-22.52069 0,-12.1911 -0.18698,-22.002082 -0.43159,-22.645446 -0.70246,-1.847607 -3.35617,-4.55936 -5.34669,-5.463631 -3.93544,-1.787837 -9.4322,-0.378546 -12.0852,3.098452 l -1.3336,1.747828 -0.23129,22.471767 c -0.17337,16.84505 -0.37697,22.72645 -0.8131,23.48887 -1.93589,3.38424 -7.07829,3.28127 -8.84694,-0.17715 -0.35869,-0.70137 -0.51672,-7.58938 -0.51672,-22.52069 0,-12.1911 -0.18699,-22.002082 -0.4316,-22.645446 -0.70246,-1.847607 -3.35618,-4.55936 -5.34668,-5.463631 -3.87387,-1.759857 -9.43517,-0.375283 -12.00019,2.987634 -1.8744,2.457453 -2.09288,5.31676 -2.10318,27.525053 l -0.009,20.04219 -1.35216,1.35214 c -1.88621,1.88622 -4.51033,1.88728 -6.62005,0.002 l -1.51068,-1.34958 -0.12936,-20.85437 -0.12937,-20.854377 -11.43597,0 -11.43598,0 -20.3527,13.451137 c -11.193992,7.39813 -20.848528,13.90316 -21.454536,14.45564 -2.604526,2.37443 -3.573104,7.35066 -2.111693,10.84917 1.539032,3.68433 5.148195,6.08608 9.172907,6.10418 2.016712,0.009 3.871872,-0.81214 17.313152,-7.66383 16.39457,-8.35714 16.58526,-8.4167 19.05356,-5.95088 l 1.15645,1.15528 0.23129,23.23462 c 0.12721,12.77904 0.0755,23.87456 -0.11494,24.65671 -0.41334,1.69773 -1.9511,3.20054 -3.69745,3.61342 -1.85784,0.43924 -3.99966,-0.6541 -6.33249,-3.23254 -1.12735,-1.24605 -6.56281,-6.87577 -12.0788,-12.51049 -9.757714,-9.96772 -10.096591,-10.26003 -12.524074,-10.80327 -5.527533,-1.23701 -10.965729,2.29848 -11.768371,7.6509 -0.473825,3.15968 0.52816,6.22712 3.577384,10.95165 3.380116,5.23721 8.361832,15.07942 15.730189,31.07758 7.082172,15.37679 13.714222,28.52253 18.135592,35.94749 8.19423,13.76091 16.10953,22.0795 23.08269,24.25878 1.51837,0.47453 8.21528,0.61604 30.29388,0.64015 l 28.34459,0.0309 3.13903,-1.58079 z M 112.90759,139.5978 c -0.21058,-0.21058 -4.68064,1.97376 -11.17695,5.46172 l -4.182758,2.24578 7.652108,7.94148 7.65211,7.94149 0.12373,-11.69925 c 0.0681,-6.43459 0.0373,-11.78563 -0.0682,-11.89122 z"
       id="path4716"
       inkscape:connector-curvature="0" />
  </g>
</svg>
