<?xml version="1.0" encoding="UTF-8" standalone="no"?>
<!-- Created with Inkscape (http://www.inkscape.org/) -->

<svg
   xmlns:dc="http://purl.org/dc/elements/1.1/"
   xmlns:cc="http://creativecommons.org/ns#"
   xmlns:rdf="http://www.w3.org/1999/02/22-rdf-syntax-ns#"
   xmlns:svg="http://www.w3.org/2000/svg"
   xmlns="http://www.w3.org/2000/svg"
   xmlns:sodipodi="http://sodipodi.sourceforge.net/DTD/sodipodi-0.dtd"
   xmlns:inkscape="http://www.inkscape.org/namespaces/inkscape"
   width="320"
   height="320"
   id="svg2"
   sodipodi:version="0.32"
   inkscape:version="0.91 r13725"
   version="1.0"
   sodipodi:docname="ToolPan.svg"
   inkscape:output_extension="org.inkscape.output.svg.inkscape"
   inkscape:export-filename="/home/aclark/CRK3/MMTk/images/msk/MainSelect.png"
   inkscape:export-xdpi="9"
   inkscape:export-ydpi="9">
  <defs
     id="defs4">
    <inkscape:perspective
       id="perspective8"
       inkscape:persp3d-origin="160 : 106.66667 : 1"
       inkscape:vp_z="320 : 160 : 1"
       inkscape:vp_y="0 : 1000 : 0"
       inkscape:vp_x="0 : 160 : 1"
       sodipodi:type="inkscape:persp3d" />
  </defs>
  <sodipodi:namedview
     id="base"
     pagecolor="#bcd7fd"
     bordercolor="#666666"
     borderopacity="1.0"
     gridtolerance="10000"
     guidetolerance="10"
     objecttolerance="10"
     inkscape:pageopacity="0"
     inkscape:pageshadow="2"
     inkscape:zoom="0.98994949"
     inkscape:cx="-33.40249"
     inkscape:cy="158.28825"
     inkscape:document-units="px"
     inkscape:current-layer="layer1"
     width="320px"
     height="320px"
     showborder="true"
     inkscape:window-width="1857"
     inkscape:window-height="1155"
     inkscape:window-x="63"
     inkscape:window-y="0"
     showgrid="false"
     inkscape:window-maximized="1">
    <inkscape:grid
       type="xygrid"
       id="grid4135" />
  </sodipodi:namedview>
  <metadata
     id="metadata7">
    <rdf:RDF>
      <cc:Work
         rdf:about="">
        <dc:format>image/svg+xml</dc:format>
        <dc:type
           rdf:resource="http://purl.org/dc/dcmitype/StillImage" />
        <dc:title></dc:title>
      </cc:Work>
    </rdf:RDF>
  </metadata>
  <g
     inkscape:label="Layer 1"
     inkscape:groupmode="layer"
     id="layer1">
    <g
       id="g4759"
       transform="matrix(1.1035479,0,0,1.1035479,259.85038,18.296497)">
      <path
         inkscape:connector-curvature="0"
         id="path4753"
         d="m -92.02537,30.740234 c 2.45111,0 4.90206,1.015331 6.93164,3.044922 l 3.06836,3.06836 0,41.93164 0,41.931644 4.95508,0 4.95508,0 0.35742,-12.1875 0.35742,-12.187503 3.375,-0.390625 c 1.85662,-0.214261 4.5285,0.22835 5.9375,0.982422 2.3433,1.254098 2.5625,2.539225 2.5625,15.076176 l 0,13.70703 4.375,0 4.375,0 0,-7.5 0,-7.5 3.80664,0 c 2.37515,0 4.96071,1.15407 6.875,3.06836 l 3.06836,3.06836 0,27.27148 c 0,29.8793 -0.11379,30.57518 -9.17774,55.85742 -2.44343,6.81549 -4.81894,15.39361 -5.27734,19.0625 l -0.83398,6.67188 -34.67188,0 -34.67187,0 -0.78321,-9.25977 c -1.01374,-11.99243 -4.78475,-21.87779 -11.15039,-29.22656 -2.80546,-3.23874 -6.72177,-9.54492 -8.70117,-14.01367 -6.77955,-15.30563 -9.7463,-20.68795 -14.73633,-26.72657 -5.60352,-6.78105 -6.13962,-9.6299 -2.49609,-13.27343 6.23629,-6.23629 15.622,-0.97085 29.00391,16.27148 l 3.3789,4.35352 0.0586,-50.99414 0.0586,-50.994144 3.14648,-3.146485 c 2.32477,-2.324778 4.20069,-3.044178 7.1875,-2.755859 l 4.04102,0.390625 0.33203,37.1875 0.33008,37.187503 4.98242,0 4.98047,0 0,-41.931644 0,-41.93164 3.06836,-3.06836 c 2.02959,-2.029591 4.48053,-3.044922 6.93164,-3.044922 z"
         style="fill:#ffffff;fill-opacity:1" />
      <path
         id="path4746"
         d="m -92.042969,21.097656 c -4.169447,0.0083 -8.343911,1.22813 -11.527341,3.65625 -2.46099,1.877091 -5.19972,5.050631 -6.08594,7.052735 -1.43274,3.23679 -2.35022,3.702655 -8.29102,4.195312 -7.08275,0.587357 -11.48476,3.067017 -15.875,8.943359 -2.45502,3.286042 -2.59594,5.308607 -2.9414,42.654297 l -0.36133,39.205081 -6.51367,-3.03125 c -3.58178,-1.66763 -8.07753,-3.03792 -9.99024,-3.04492 -5.12526,-0.018 -11.35175,2.95887 -14.46289,6.91406 -5.99633,7.62309 -5.04663,14.71933 3.375,25.21289 3.63938,4.53475 8.11406,12.47823 11.34571,20.13672 3.20064,7.58499 7.30372,14.88134 10.25,18.22851 7.87832,8.95023 10.19097,15.56933 10.84765,31.0586 l 0.56836,13.4375 44.839846,0 44.839843,0 0,-7.83985 c 0,-8.54888 2.179562,-17.0333 9.544922,-37.16015 l 4.802735,-13.125 0.429687,-29.375 c 0.27731,-18.93033 -0.05681,-31.00119 -0.939453,-33.94727 -1.80016,-6.00858 -8.806804,-12.06842 -15.121094,-13.07812 -2.73207,-0.43687 -4.966797,-1.437874 -4.966797,-2.224613 0,-0.78674 -1.694735,-3.485705 -3.765625,-5.998047 -4.1349,-5.016353 -10.661225,-7.804379 -16.328125,-6.972656 l -3.65625,0.537109 0,-24.90625 c 0,-27.98198 -0.682675,-30.943484 -8.515625,-36.917969 -3.16682,-2.415449 -7.332505,-3.619648 -11.501953,-3.611328 z m 0.01758,9.642578 c 2.451114,0 4.902056,1.015331 6.931641,3.044922 l 3.068359,3.06836 0,41.93164 0,41.931644 4.955079,0 4.955078,0 0.357422,-12.1875 0.357421,-12.187503 3.375,-0.390625 c 1.85662,-0.214261 4.5285,0.22835 5.9375,0.982422 2.3433,1.254098 2.5625,2.539225 2.5625,15.076176 l 0,13.70703 4.375,0 4.375,0 0,-7.5 0,-7.5 3.806641,0 c 2.37515,0 4.96071,1.15407 6.875,3.06836 l 3.068359,3.06836 0,27.27148 c 0,29.8793 -0.113784,30.57518 -9.177734,55.85742 -2.44343,6.81549 -4.818944,15.39361 -5.277344,19.0625 l -0.833984,6.67188 -34.671875,0 -34.671874,0 -0.78321,-9.25977 c -1.01374,-11.99243 -4.78475,-21.87779 -11.15039,-29.22656 -2.80546,-3.23874 -6.72177,-9.54492 -8.70117,-14.01367 -6.77955,-15.30563 -9.7463,-20.68795 -14.73633,-26.72657 -5.60352,-6.78105 -6.13962,-9.6299 -2.49609,-13.27343 6.23629,-6.23629 15.622,-0.97085 29.00391,16.27148 l 3.3789,4.35352 0.0586,-50.99414 0.0586,-50.994144 3.14648,-3.146485 c 2.32477,-2.324778 4.20069,-3.044178 7.1875,-2.755859 l 4.04102,0.390625 0.33203,37.1875 0.33008,37.187503 4.98242,0 4.98047,0 0,-41.931644 0,-41.93164 3.068361,-3.06836 c 2.02959,-2.029591 4.480527,-3.044922 6.93164,-3.044922 z"
         style="fill:#000000"
         inkscape:connector-curvature="0" />
    </g>
  </g>
</svg>
