<?xml version="1.0" encoding="UTF-8" standalone="no"?>
<!-- Created with Inkscape (http://www.inkscape.org/) -->

<svg
   xmlns:dc="http://purl.org/dc/elements/1.1/"
   xmlns:cc="http://creativecommons.org/ns#"
   xmlns:rdf="http://www.w3.org/1999/02/22-rdf-syntax-ns#"
   xmlns:svg="http://www.w3.org/2000/svg"
   xmlns="http://www.w3.org/2000/svg"
   xmlns:sodipodi="http://sodipodi.sourceforge.net/DTD/sodipodi-0.dtd"
   xmlns:inkscape="http://www.inkscape.org/namespaces/inkscape"
   width="320"
   height="320"
   id="svg2"
   sodipodi:version="0.32"
   inkscape:version="0.91 r"
   version="1.0"
   sodipodi:docname="ToolRotate.svg"
   inkscape:output_extension="org.inkscape.output.svg.inkscape"
   inkscape:export-filename="/home/aclark/CRK3/MMTk/images/msk/MainSelect.png"
   inkscape:export-xdpi="9"
   inkscape:export-ydpi="9">
  <defs
     id="defs4">
    <inkscape:perspective
       id="perspective8"
       inkscape:persp3d-origin="160 : 106.66667 : 1"
       inkscape:vp_z="320 : 160 : 1"
       inkscape:vp_y="0 : 1000 : 0"
       inkscape:vp_x="0 : 160 : 1"
       sodipodi:type="inkscape:persp3d" />
  </defs>
  <sodipodi:namedview
     id="base"
     pagecolor="#d3e5ff"
     bordercolor="#666666"
     borderopacity="1.0"
     gridtolerance="10000"
     guidetolerance="10"
     objecttolerance="10"
     inkscape:pageopacity="0"
     inkscape:pageshadow="2"
     inkscape:zoom="0.98994949"
     inkscape:cx="-140.47866"
     inkscape:cy="198.69435"
     inkscape:document-units="px"
     inkscape:current-layer="layer1"
     width="320px"
     height="320px"
     showborder="true"
     inkscape:window-width="1857"
     inkscape:window-height="1028"
     inkscape:window-x="61"
     inkscape:window-y="0"
     showgrid="false"
     inkscape:window-maximized="0">
    <inkscape:grid
       type="xygrid"
       id="grid4135" />
  </sodipodi:namedview>
  <metadata
     id="metadata7">
    <rdf:RDF>
      <cc:Work
         rdf:about="">
        <dc:format>image/svg+xml</dc:format>
        <dc:type
           rdf:resource="http://purl.org/dc/dcmitype/StillImage" />
        <dc:title />
      </cc:Work>
    </rdf:RDF>
  </metadata>
  <g
     inkscape:label="Layer 1"
     inkscape:groupmode="layer"
     id="layer1">
    <path
       inkscape:connector-curvature="0"
       style="fill:#ffffff;fill-opacity:1;stroke:#000000;stroke-width:4.55773544;stroke-linecap:round;stroke-miterlimit:4;stroke-dasharray:none;stroke-opacity:1"
       d="M 68.562496,210.12948 A 34.671101,35.243633 0 0 0 33.890833,245.37285 34.671101,35.243633 0 0 0 68.562496,280.6189 34.671101,35.243633 0 0 0 103.23417,245.37285 34.671101,35.243633 0 0 0 68.562496,210.12948 Z m 0.09935,11.02044 A 23.336319,23.721675 0 0 1 91.999068,244.87094 23.336319,23.721675 0 0 1 68.66185,268.59197 23.336319,23.721675 0 0 1 45.324633,244.87094 23.336319,23.721675 0 0 1 68.66185,221.14992 Z"
       id="path4237" />
    <path
       inkscape:connector-curvature="0"
       style="fill:none;fill-rule:evenodd;stroke:#000000;stroke-width:10.40872955;stroke-linecap:round;stroke-linejoin:round;stroke-miterlimit:4;stroke-dasharray:10.40872949, 20.81745898;stroke-dashoffset:2.00970006;stroke-opacity:1"
       d="M 177.52863,34.919161 68.562276,246.38095 l 224.866844,0"
       id="path5210" />
    <path
       inkscape:connector-curvature="0"
       style="fill:none;fill-rule:evenodd;stroke:#000000;stroke-width:6.99123812px;stroke-linecap:butt;stroke-linejoin:miter;stroke-opacity:1"
       d="m 128.10545,149.71269 c 28.70161,15.31171 49.84665,42.14544 57.45499,89.61956"
       id="path5212"
       sodipodi:nodetypes="cc" />
    <g
       style="font-style:normal;font-weight:normal;font-size:129.6784668px;line-height:125%;font-family:Sans;letter-spacing:0px;word-spacing:0px;fill:#000000;fill-opacity:1;stroke:none;stroke-width:1px;stroke-linecap:butt;stroke-linejoin:miter;stroke-opacity:1"
       id="text4750">
      <path
         d="m 230.101,96.949874 q 4.93893,0 8.7381,2.026226 3.79918,1.96291 6.33196,5.76208 2.53278,3.79917 3.79917,9.3713 1.32971,5.5088 1.32971,12.60059 0,8.16822 -1.83626,18.48931 -3.92582,22.35181 -12.41064,33.05281 -8.4215,10.63769 -21.08541,10.63769 -4.81229,0 -8.42151,-1.89959 -3.54589,-1.9629 -5.88871,-5.63544 -2.34283,-3.73585 -3.5459,-9.0547 -1.13975,-5.31884 -1.13975,-12.09403 0,-4.49569 0.44323,-9.49794 0.50656,-5.00224 1.51967,-10.57436 3.92582,-22.22517 12.03072,-32.6729 8.16822,-10.511046 20.13562,-10.511046 z m -0.44323,5.065566 q -4.1791,0 -7.21843,2.53278 -2.97602,2.53278 -5.31885,7.40839 -2.2795,4.87561 -4.05245,11.9674 -1.70963,7.09179 -3.29262,16.20981 l 27.67065,0 q 0.88648,-5.69876 1.39303,-10.70101 0.50656,-5.06556 0.50656,-9.3713 0,-4.17909 -0.56988,-7.53502 -0.50655,-3.35594 -1.64631,-5.63544 -1.13975,-2.34283 -2.97602,-3.60922 -1.83626,-1.26639 -4.49568,-1.26639 z m -20.83214,43.6905 q -1.01311,6.142 -1.58299,11.6508 -0.56988,5.44548 -0.56988,10.06781 0,3.73585 0.44324,6.77519 0.44324,3.03934 1.45635,5.19221 1.01311,2.15286 2.65942,3.35593 1.64631,1.13976 3.98913,1.13976 4.11578,0 7.34507,-2.59611 3.29262,-2.5961 5.8254,-7.47171 2.59611,-4.93892 4.55901,-12.03071 1.96291,-7.09179 3.5459,-16.08317 l -27.67065,0 z"
         style="font-style:italic;font-variant:normal;font-weight:normal;font-stretch:normal;font-family:'Times New Roman';-inkscape-font-specification:'Times New Roman,  Italic'"
         id="path4147" />
    </g>
  </g>
</svg>
